<?xml version="1.0" encoding="UTF-8" standalone="no"?><svg xmlns="http://www.w3.org/2000/svg" xmlns:xlink="http://www.w3.org/1999/xlink" contentScriptType="application/ecmascript" contentStyleType="text/css" height="246px" preserveAspectRatio="none" style="width:2397px;height:246px;" version="1.1" viewBox="0 0 2397 246" width="2397px" zoomAndPan="magnify"><defs><filter height="300%" id="f108uju3q823mp" width="300%" x="-1" y="-1"><feGaussianBlur result="blurOut" stdDeviation="2.0"/><feColorMatrix in="blurOut" result="blurOut2" type="matrix" values="0 0 0 0 0 0 0 0 0 0 0 0 0 0 0 0 0 0 .4 0"/><feOffset dx="4.0" dy="4.0" in="blurOut2" result="blurOut3"/><feBlend in="SourceGraphic" in2="blurOut3" mode="normal"/></filter></defs><g><!--MD5=[c53b5c2d2816945b2a408fca10d0017e]
cluster Instances--><polygon fill="#FFFFFF" filter="url(#f108uju3q823mp)" points="22,24,104,24,111,46.2969,2375,46.2969,2375,234,22,234,22,24" style="stroke: #000000; stroke-width: 1.5;"/><line style="stroke: #000000; stroke-width: 1.5;" x1="22" x2="111" y1="46.2969" y2="46.2969"/><text fill="#000000" font-family="sans-serif" font-size="14" font-weight="bold" lengthAdjust="spacingAndGlyphs" textLength="76" x="26" y="38.9951">Instances</text><rect fill="#FEFECE" filter="url(#f108uju3q823mp)" height="33.9688" style="stroke: #A80036; stroke-width: 1.5;" width="203" x="2087.5" y="59"/><text fill="#000000" font-family="sans-serif" font-size="12" lengthAdjust="spacingAndGlyphs" textLength="189" x="2094.5" y="72.1387">ReflectDynamicClassConverter</text><line style="stroke: #A80036; stroke-width: 1.5;" x1="2088.5" x2="2289.5" y1="76.9688" y2="76.9688"/><!--MD5=[4e58ace646d9199bdbeb507ab138711e]
class ReflectDynamicClassProxier--><rect fill="#FEFECE" filter="url(#f108uju3q823mp)" height="48" id="ReflectDynamicClassProxier" style="stroke: #A80036; stroke-width: 1.5;" width="203" x="1877.5" y="170"/><ellipse cx="1892.5" cy="186" fill="#ADD1B2" rx="11" ry="11" style="stroke: #A80036; stroke-width: 1.0;"/><path d="M1895.4688,191.6406 Q1894.8906,191.9375 1894.25,192.0781 Q1893.6094,192.2344 1892.9063,192.2344 Q1890.4063,192.2344 1889.0781,190.5938 Q1887.7656,188.9375 1887.7656,185.8125 Q1887.7656,182.6875 1889.0781,181.0313 Q1890.4063,179.375 1892.9063,179.375 Q1893.6094,179.375 1894.25,179.5313 Q1894.9063,179.6875 1895.4688,179.9844 L1895.4688,182.7031 Q1894.8438,182.125 1894.25,181.8594 Q1893.6563,181.5781 1893.0313,181.5781 Q1891.6875,181.5781 1891,182.6563 Q1890.3125,183.7188 1890.3125,185.8125 Q1890.3125,187.9063 1891,188.9844 Q1891.6875,190.0469 1893.0313,190.0469 Q1893.6563,190.0469 1894.25,189.7813 Q1894.8438,189.5 1895.4688,188.9219 L1895.4688,191.6406 Z "/><text fill="#000000" font-family="sans-serif" font-size="12" lengthAdjust="spacingAndGlyphs" textLength="171" x="1906.5" y="190.1543">ReflectDynamicClassProxier</text><line style="stroke: #A80036; stroke-width: 1.5;" x1="1878.5" x2="2079.5" y1="202" y2="202"/><line style="stroke: #A80036; stroke-width: 1.5;" x1="1878.5" x2="2079.5" y1="210" y2="210"/><!--MD5=[ef258ad6290a51539a6805afca1b6626]
class UnimplementedDynamicConverter--><rect fill="#FEFECE" filter="url(#f108uju3q823mp)" height="48" id="UnimplementedDynamicConverter" style="stroke: #A80036; stroke-width: 1.5;" width="243" x="2115.5" y="170"/><ellipse cx="2130.5" cy="186" fill="#ADD1B2" rx="11" ry="11" style="stroke: #A80036; stroke-width: 1.0;"/><path d="M2133.4688,191.6406 Q2132.8906,191.9375 2132.25,192.0781 Q2131.6094,192.2344 2130.9063,192.2344 Q2128.4063,192.2344 2127.0781,190.5938 Q2125.7656,188.9375 2125.7656,185.8125 Q2125.7656,182.6875 2127.0781,181.0313 Q2128.4063,179.375 2130.9063,179.375 Q2131.6094,179.375 2132.25,179.5313 Q2132.9063,179.6875 2133.4688,179.9844 L2133.4688,182.7031 Q2132.8438,182.125 2132.25,181.8594 Q2131.6563,181.5781 2131.0313,181.5781 Q2129.6875,181.5781 2129,182.6563 Q2128.3125,183.7188 2128.3125,185.8125 Q2128.3125,187.9063 2129,188.9844 Q2129.6875,190.0469 2131.0313,190.0469 Q2131.6563,190.0469 2132.25,189.7813 Q2132.8438,189.5 2133.4688,188.9219 L2133.4688,191.6406 Z "/><text fill="#000000" font-family="sans-serif" font-size="12" lengthAdjust="spacingAndGlyphs" textLength="211" x="2144.5" y="190.1543">UnimplementedDynamicConverter</text><line style="stroke: #A80036; stroke-width: 1.5;" x1="2116.5" x2="2357.5" y1="202" y2="202"/><line style="stroke: #A80036; stroke-width: 1.5;" x1="2116.5" x2="2357.5" y1="210" y2="210"/><rect fill="#FEFECE" filter="url(#f108uju3q823mp)" height="33.9688" style="stroke: #A80036; stroke-width: 1.5;" width="187" x="586.5" y="59"/><text fill="#000000" font-family="sans-serif" font-size="12" lengthAdjust="spacingAndGlyphs" textLength="173" x="593.5" y="72.1387">ReflectStaticClassConverter</text><line style="stroke: #A80036; stroke-width: 1.5;" x1="587.5" x2="772.5" y1="76.9688" y2="76.9688"/><!--MD5=[e5e1ea9464a447279c311f352aa134d1]
class UnimplementedStaticConverter--><rect fill="#FEFECE" filter="url(#f108uju3q823mp)" height="48" id="UnimplementedStaticConverter" style="stroke: #A80036; stroke-width: 1.5;" width="227" x="261.5" y="170"/><ellipse cx="276.5" cy="186" fill="#ADD1B2" rx="11" ry="11" style="stroke: #A80036; stroke-width: 1.0;"/><path d="M279.4688,191.6406 Q278.8906,191.9375 278.25,192.0781 Q277.6094,192.2344 276.9063,192.2344 Q274.4063,192.2344 273.0781,190.5938 Q271.7656,188.9375 271.7656,185.8125 Q271.7656,182.6875 273.0781,181.0313 Q274.4063,179.375 276.9063,179.375 Q277.6094,179.375 278.25,179.5313 Q278.9063,179.6875 279.4688,179.9844 L279.4688,182.7031 Q278.8438,182.125 278.25,181.8594 Q277.6563,181.5781 277.0313,181.5781 Q275.6875,181.5781 275,182.6563 Q274.3125,183.7188 274.3125,185.8125 Q274.3125,187.9063 275,188.9844 Q275.6875,190.0469 277.0313,190.0469 Q277.6563,190.0469 278.25,189.7813 Q278.8438,189.5 279.4688,188.9219 L279.4688,191.6406 Z "/><text fill="#000000" font-family="sans-serif" font-size="12" lengthAdjust="spacingAndGlyphs" textLength="195" x="290.5" y="190.1543">UnimplementedStaticConverter</text><line style="stroke: #A80036; stroke-width: 1.5;" x1="262.5" x2="487.5" y1="202" y2="202"/><line style="stroke: #A80036; stroke-width: 1.5;" x1="262.5" x2="487.5" y1="210" y2="210"/><!--MD5=[e3c76d295a01b7ae44faebaabc216321]
class ReflectStaticClassProxier--><rect fill="#FEFECE" filter="url(#f108uju3q823mp)" height="48" id="ReflectStaticClassProxier" style="stroke: #A80036; stroke-width: 1.5;" width="187" x="1655.5" y="170"/><ellipse cx="1670.5" cy="186" fill="#ADD1B2" rx="11" ry="11" style="stroke: #A80036; stroke-width: 1.0;"/><path d="M1673.4688,191.6406 Q1672.8906,191.9375 1672.25,192.0781 Q1671.6094,192.2344 1670.9063,192.2344 Q1668.4063,192.2344 1667.0781,190.5938 Q1665.7656,188.9375 1665.7656,185.8125 Q1665.7656,182.6875 1667.0781,181.0313 Q1668.4063,179.375 1670.9063,179.375 Q1671.6094,179.375 1672.25,179.5313 Q1672.9063,179.6875 1673.4688,179.9844 L1673.4688,182.7031 Q1672.8438,182.125 1672.25,181.8594 Q1671.6563,181.5781 1671.0313,181.5781 Q1669.6875,181.5781 1669,182.6563 Q1668.3125,183.7188 1668.3125,185.8125 Q1668.3125,187.9063 1669,188.9844 Q1669.6875,190.0469 1671.0313,190.0469 Q1671.6563,190.0469 1672.25,189.7813 Q1672.8438,189.5 1673.4688,188.9219 L1673.4688,191.6406 Z "/><text fill="#000000" font-family="sans-serif" font-size="12" lengthAdjust="spacingAndGlyphs" textLength="155" x="1684.5" y="190.1543">ReflectStaticClassProxier</text><line style="stroke: #A80036; stroke-width: 1.5;" x1="1656.5" x2="1841.5" y1="202" y2="202"/><line style="stroke: #A80036; stroke-width: 1.5;" x1="1656.5" x2="1841.5" y1="210" y2="210"/><rect fill="#FEFECE" filter="url(#f108uju3q823mp)" height="33.9688" style="stroke: #A80036; stroke-width: 1.5;" width="107" x="1713.5" y="59"/><text fill="#000000" font-family="sans-serif" font-size="12" lengthAdjust="spacingAndGlyphs" textLength="93" x="1720.5" y="72.1387">ArrayConverter</text><line style="stroke: #A80036; stroke-width: 1.5;" x1="1714.5" x2="1819.5" y1="76.9688" y2="76.9688"/><rect fill="#FEFECE" filter="url(#f108uju3q823mp)" height="33.9688" style="stroke: #A80036; stroke-width: 1.5;" width="105" x="1882.5" y="59"/><text fill="#000000" font-family="sans-serif" font-size="12" lengthAdjust="spacingAndGlyphs" textLength="91" x="1889.5" y="72.1387">DateConverter</text><line style="stroke: #A80036; stroke-width: 1.5;" x1="1883.5" x2="1986.5" y1="76.9688" y2="76.9688"/><rect fill="#FEFECE" filter="url(#f108uju3q823mp)" height="33.9688" style="stroke: #A80036; stroke-width: 1.5;" width="121" x="1341.5" y="59"/><text fill="#000000" font-family="sans-serif" font-size="12" lengthAdjust="spacingAndGlyphs" textLength="107" x="1348.5" y="72.1387">JSValueConverter</text><line style="stroke: #A80036; stroke-width: 1.5;" x1="1342.5" x2="1461.5" y1="76.9688" y2="76.9688"/><!--MD5=[c875217210d9f61b50bc52fd17cddab4]
class JSValueDynamicConverter--><rect fill="#FEFECE" filter="url(#f108uju3q823mp)" height="48" id="JSValueDynamicConverter" style="stroke: #A80036; stroke-width: 1.5;" width="191" x="1219.5" y="170"/><ellipse cx="1234.5" cy="186" fill="#ADD1B2" rx="11" ry="11" style="stroke: #A80036; stroke-width: 1.0;"/><path d="M1237.4688,191.6406 Q1236.8906,191.9375 1236.25,192.0781 Q1235.6094,192.2344 1234.9063,192.2344 Q1232.4063,192.2344 1231.0781,190.5938 Q1229.7656,188.9375 1229.7656,185.8125 Q1229.7656,182.6875 1231.0781,181.0313 Q1232.4063,179.375 1234.9063,179.375 Q1235.6094,179.375 1236.25,179.5313 Q1236.9063,179.6875 1237.4688,179.9844 L1237.4688,182.7031 Q1236.8438,182.125 1236.25,181.8594 Q1235.6563,181.5781 1235.0313,181.5781 Q1233.6875,181.5781 1233,182.6563 Q1232.3125,183.7188 1232.3125,185.8125 Q1232.3125,187.9063 1233,188.9844 Q1233.6875,190.0469 1235.0313,190.0469 Q1235.6563,190.0469 1236.25,189.7813 Q1236.8438,189.5 1237.4688,188.9219 L1237.4688,191.6406 Z "/><text fill="#000000" font-family="sans-serif" font-size="12" lengthAdjust="spacingAndGlyphs" textLength="159" x="1248.5" y="190.1543">JSValueDynamicConverter</text><line style="stroke: #A80036; stroke-width: 1.5;" x1="1220.5" x2="1409.5" y1="202" y2="202"/><line style="stroke: #A80036; stroke-width: 1.5;" x1="1220.5" x2="1409.5" y1="210" y2="210"/><!--MD5=[53e96cf2e19ce7e4a701a1ab7bff5d47]
class JSValueStaticConverter--><rect fill="#FEFECE" filter="url(#f108uju3q823mp)" height="48" id="JSValueStaticConverter" style="stroke: #A80036; stroke-width: 1.5;" width="175" x="1445.5" y="170"/><ellipse cx="1460.5" cy="186" fill="#ADD1B2" rx="11" ry="11" style="stroke: #A80036; stroke-width: 1.0;"/><path d="M1463.4688,191.6406 Q1462.8906,191.9375 1462.25,192.0781 Q1461.6094,192.2344 1460.9063,192.2344 Q1458.4063,192.2344 1457.0781,190.5938 Q1455.7656,188.9375 1455.7656,185.8125 Q1455.7656,182.6875 1457.0781,181.0313 Q1458.4063,179.375 1460.9063,179.375 Q1461.6094,179.375 1462.25,179.5313 Q1462.9063,179.6875 1463.4688,179.9844 L1463.4688,182.7031 Q1462.8438,182.125 1462.25,181.8594 Q1461.6563,181.5781 1461.0313,181.5781 Q1459.6875,181.5781 1459,182.6563 Q1458.3125,183.7188 1458.3125,185.8125 Q1458.3125,187.9063 1459,188.9844 Q1459.6875,190.0469 1461.0313,190.0469 Q1461.6563,190.0469 1462.25,189.7813 Q1462.8438,189.5 1463.4688,188.9219 L1463.4688,191.6406 Z "/><text fill="#000000" font-family="sans-serif" font-size="12" lengthAdjust="spacingAndGlyphs" textLength="143" x="1474.5" y="190.1543">JSValueStaticConverter</text><line style="stroke: #A80036; stroke-width: 1.5;" x1="1446.5" x2="1619.5" y1="202" y2="202"/><line style="stroke: #A80036; stroke-width: 1.5;" x1="1446.5" x2="1619.5" y1="210" y2="210"/><rect fill="#FEFECE" filter="url(#f108uju3q823mp)" height="33.9688" style="stroke: #A80036; stroke-width: 1.5;" width="129" x="866.5" y="59"/><text fill="#000000" font-family="sans-serif" font-size="12" lengthAdjust="spacingAndGlyphs" textLength="115" x="873.5" y="72.1387">FunctionConverter</text><line style="stroke: #A80036; stroke-width: 1.5;" x1="867.5" x2="994.5" y1="76.9688" y2="76.9688"/><!--MD5=[77da0c37e112b16d76deae923824cd6e]
class FunctionDynamicClassProxier--><rect fill="#FEFECE" filter="url(#f108uju3q823mp)" height="48" id="FunctionDynamicClassProxier" style="stroke: #A80036; stroke-width: 1.5;" width="214" x="970" y="170"/><ellipse cx="985" cy="186" fill="#ADD1B2" rx="11" ry="11" style="stroke: #A80036; stroke-width: 1.0;"/><path d="M987.9688,191.6406 Q987.3906,191.9375 986.75,192.0781 Q986.1094,192.2344 985.4063,192.2344 Q982.9063,192.2344 981.5781,190.5938 Q980.2656,188.9375 980.2656,185.8125 Q980.2656,182.6875 981.5781,181.0313 Q982.9063,179.375 985.4063,179.375 Q986.1094,179.375 986.75,179.5313 Q987.4063,179.6875 987.9688,179.9844 L987.9688,182.7031 Q987.3438,182.125 986.75,181.8594 Q986.1563,181.5781 985.5313,181.5781 Q984.1875,181.5781 983.5,182.6563 Q982.8125,183.7188 982.8125,185.8125 Q982.8125,187.9063 983.5,188.9844 Q984.1875,190.0469 985.5313,190.0469 Q986.1563,190.0469 986.75,189.7813 Q987.3438,189.5 987.9688,188.9219 L987.9688,191.6406 Z "/><text fill="#000000" font-family="sans-serif" font-size="12" lengthAdjust="spacingAndGlyphs" textLength="182" x="999" y="190.1543">FunctionDynamicClassProxier</text><line style="stroke: #A80036; stroke-width: 1.5;" x1="971" x2="1183" y1="202" y2="202"/><line style="stroke: #A80036; stroke-width: 1.5;" x1="971" x2="1183" y1="210" y2="210"/><!--MD5=[caaaa623cb8579919491ac4ac4dec6da]
class FunctionStaticClassProxier--><rect fill="#FEFECE" filter="url(#f108uju3q823mp)" height="48" id="FunctionStaticClassProxier" style="stroke: #A80036; stroke-width: 1.5;" width="198" x="737" y="170"/><ellipse cx="752" cy="186" fill="#ADD1B2" rx="11" ry="11" style="stroke: #A80036; stroke-width: 1.0;"/><path d="M754.9688,191.6406 Q754.3906,191.9375 753.75,192.0781 Q753.1094,192.2344 752.4063,192.2344 Q749.9063,192.2344 748.5781,190.5938 Q747.2656,188.9375 747.2656,185.8125 Q747.2656,182.6875 748.5781,181.0313 Q749.9063,179.375 752.4063,179.375 Q753.1094,179.375 753.75,179.5313 Q754.4063,179.6875 754.9688,179.9844 L754.9688,182.7031 Q754.3438,182.125 753.75,181.8594 Q753.1563,181.5781 752.5313,181.5781 Q751.1875,181.5781 750.5,182.6563 Q749.8125,183.7188 749.8125,185.8125 Q749.8125,187.9063 750.5,188.9844 Q751.1875,190.0469 752.5313,190.0469 Q753.1563,190.0469 753.75,189.7813 Q754.3438,189.5 754.9688,188.9219 L754.9688,191.6406 Z "/><text fill="#000000" font-family="sans-serif" font-size="12" lengthAdjust="spacingAndGlyphs" textLength="166" x="766" y="190.1543">FunctionStaticClassProxier</text><line style="stroke: #A80036; stroke-width: 1.5;" x1="738" x2="934" y1="202" y2="202"/><line style="stroke: #A80036; stroke-width: 1.5;" x1="738" x2="934" y1="210" y2="210"/><rect fill="#FEFECE" filter="url(#f108uju3q823mp)" height="33.9688" style="stroke: #A80036; stroke-width: 1.5;" width="142" x="382" y="59"/><text fill="#000000" font-family="sans-serif" font-size="12" lengthAdjust="spacingAndGlyphs" textLength="128" x="389" y="72.1387">TupleClassConverter</text><line style="stroke: #A80036; stroke-width: 1.5;" x1="383" x2="523" y1="76.9688" y2="76.9688"/><!--MD5=[97a932a6e38841f792abad47bfabb4ab]
class TupleStaticClassProxier--><rect fill="#FEFECE" filter="url(#f108uju3q823mp)" height="48" id="TupleStaticClassProxier" style="stroke: #A80036; stroke-width: 1.5;" width="178" x="524" y="170"/><ellipse cx="539" cy="186" fill="#ADD1B2" rx="11" ry="11" style="stroke: #A80036; stroke-width: 1.0;"/><path d="M541.9688,191.6406 Q541.3906,191.9375 540.75,192.0781 Q540.1094,192.2344 539.4063,192.2344 Q536.9063,192.2344 535.5781,190.5938 Q534.2656,188.9375 534.2656,185.8125 Q534.2656,182.6875 535.5781,181.0313 Q536.9063,179.375 539.4063,179.375 Q540.1094,179.375 540.75,179.5313 Q541.4063,179.6875 541.9688,179.9844 L541.9688,182.7031 Q541.3438,182.125 540.75,181.8594 Q540.1563,181.5781 539.5313,181.5781 Q538.1875,181.5781 537.5,182.6563 Q536.8125,183.7188 536.8125,185.8125 Q536.8125,187.9063 537.5,188.9844 Q538.1875,190.0469 539.5313,190.0469 Q540.1563,190.0469 540.75,189.7813 Q541.3438,189.5 541.9688,188.9219 L541.9688,191.6406 Z "/><text fill="#000000" font-family="sans-serif" font-size="12" lengthAdjust="spacingAndGlyphs" textLength="146" x="553" y="190.1543">TupleStaticClassProxier</text><line style="stroke: #A80036; stroke-width: 1.5;" x1="525" x2="701" y1="202" y2="202"/><line style="stroke: #A80036; stroke-width: 1.5;" x1="525" x2="701" y1="210" y2="210"/><rect fill="#FEFECE" filter="url(#f108uju3q823mp)" height="33.9688" style="stroke: #A80036; stroke-width: 1.5;" width="152" x="139" y="59"/><text fill="#000000" font-family="sans-serif" font-size="12" lengthAdjust="spacingAndGlyphs" textLength="138" x="146" y="72.1387">RecordClassConverter</text><line style="stroke: #A80036; stroke-width: 1.5;" x1="140" x2="290" y1="76.9688" y2="76.9688"/><!--MD5=[2712de8f7c4b0c0f667ffda9923fabca]
class RecordStaticClassProxier--><rect fill="#FEFECE" filter="url(#f108uju3q823mp)" height="48" id="RecordStaticClassProxier" style="stroke: #A80036; stroke-width: 1.5;" width="188" x="38" y="170"/><ellipse cx="53" cy="186" fill="#ADD1B2" rx="11" ry="11" style="stroke: #A80036; stroke-width: 1.0;"/><path d="M55.9688,191.6406 Q55.3906,191.9375 54.75,192.0781 Q54.1094,192.2344 53.4063,192.2344 Q50.9063,192.2344 49.5781,190.5938 Q48.2656,188.9375 48.2656,185.8125 Q48.2656,182.6875 49.5781,181.0313 Q50.9063,179.375 53.4063,179.375 Q54.1094,179.375 54.75,179.5313 Q55.4063,179.6875 55.9688,179.9844 L55.9688,182.7031 Q55.3438,182.125 54.75,181.8594 Q54.1563,181.5781 53.5313,181.5781 Q52.1875,181.5781 51.5,182.6563 Q50.8125,183.7188 50.8125,185.8125 Q50.8125,187.9063 51.5,188.9844 Q52.1875,190.0469 53.5313,190.0469 Q54.1563,190.0469 54.75,189.7813 Q55.3438,189.5 55.9688,188.9219 L55.9688,191.6406 Z "/><text fill="#000000" font-family="sans-serif" font-size="12" lengthAdjust="spacingAndGlyphs" textLength="156" x="67" y="190.1543">RecordStaticClassProxier</text><line style="stroke: #A80036; stroke-width: 1.5;" x1="39" x2="225" y1="202" y2="202"/><line style="stroke: #A80036; stroke-width: 1.5;" x1="39" x2="225" y1="210" y2="210"/><!--MD5=[5a3aee83a153c9ffed6f493def85f0dd]
link ReflectDynamicClassConverter to ReflectDynamicClassProxier--><path d="M2159.8,93.13 C2125,112.35 2066.43,144.71 2025.4,167.37 " fill="none" id="ReflectDynamicClassConverter-&gt;ReflectDynamicClassProxier" style="stroke: #A80036; stroke-width: 1.0; stroke-dasharray: 7.0,7.0;"/><polygon fill="#A80036" points="2020.99,169.8,2030.8033,168.9639,2025.3702,167.3888,2026.9453,161.9556,2020.99,169.8" style="stroke: #A80036; stroke-width: 1.0;"/><text fill="#000000" font-family="sans-serif" font-size="13" lengthAdjust="spacingAndGlyphs" textLength="23" x="2103" y="136.0669">has</text><!--MD5=[47aad375286856f3edd5b2518969d647]
link ReflectDynamicClassConverter to UnimplementedDynamicConverter--><path d="M2195.67,93.13 C2203.37,111.73 2216.15,142.62 2225.47,165.14 " fill="none" id="ReflectDynamicClassConverter-&gt;UnimplementedDynamicConverter" style="stroke: #A80036; stroke-width: 1.0; stroke-dasharray: 7.0,7.0;"/><polygon fill="#A80036" points="2227.4,169.8,2227.6827,159.9552,2225.5013,165.1745,2220.2819,162.9932,2227.4,169.8" style="stroke: #A80036; stroke-width: 1.0;"/><text fill="#000000" font-family="sans-serif" font-size="13" lengthAdjust="spacingAndGlyphs" textLength="23" x="2215" y="136.0669">has</text><!--MD5=[755ff0fee85dda40a0856139aa3d569d]
link ReflectStaticClassConverter to UnimplementedStaticConverter--><path d="M656.02,93.13 C634.32,107.13 601.11,127.11 570,140 C542.81,151.26 512.5,160.84 484.03,168.62 " fill="none" id="ReflectStaticClassConverter-&gt;UnimplementedStaticConverter" style="stroke: #A80036; stroke-width: 1.0; stroke-dasharray: 7.0,7.0;"/><polygon fill="#A80036" points="479.11,169.95,488.8416,171.4655,483.9371,168.6465,486.756,163.7421,479.11,169.95" style="stroke: #A80036; stroke-width: 1.0;"/><text fill="#000000" font-family="sans-serif" font-size="13" lengthAdjust="spacingAndGlyphs" textLength="23" x="605" y="136.0669">has</text><!--MD5=[0a97ae4be4e75d86875feb06984783bc]
link ReflectStaticClassConverter to ReflectStaticClassProxier--><path d="M773.81,86.49 C798.27,88.8 824.61,91.13 849,93 C1077.17,110.45 1137.44,84.42 1363,123 C1389.9,127.6 1395.31,134.33 1422,140 C1516.81,160.14 1542.49,153.49 1638,170 C1641.95,170.68 1645.98,171.4 1650.05,172.15 " fill="none" id="ReflectStaticClassConverter-&gt;ReflectStaticClassProxier" style="stroke: #A80036; stroke-width: 1.0; stroke-dasharray: 7.0,7.0;"/><polygon fill="#A80036" points="1655.22,173.11,1647.1035,167.5313,1650.3043,172.1955,1645.6402,175.3963,1655.22,173.11" style="stroke: #A80036; stroke-width: 1.0;"/><text fill="#000000" font-family="sans-serif" font-size="13" lengthAdjust="spacingAndGlyphs" textLength="23" x="1423" y="136.0669">has</text><!--MD5=[1751223e430aaa2e8e4586270d6ff63a]
link ArrayConverter to ReflectDynamicClassProxier--><path d="M1780.45,93.18 C1792.85,107.22 1812.4,127.23 1833,140 C1851.14,151.25 1872.02,160.61 1892.21,168.17 " fill="none" id="ArrayConverter-&gt;ReflectDynamicClassProxier" style="stroke: #A80036; stroke-width: 1.0; stroke-dasharray: 7.0,7.0;"/><polygon fill="#A80036" points="1897.05,169.96,1890.0091,163.0734,1892.3637,168.2169,1887.2201,170.5715,1897.05,169.96" style="stroke: #A80036; stroke-width: 1.0;"/><text fill="#000000" font-family="sans-serif" font-size="13" lengthAdjust="spacingAndGlyphs" textLength="23" x="1834" y="136.0669">has</text><!--MD5=[dcc9a2328a0fe291d87c70ac64d8e563]
link ArrayConverter to ReflectStaticClassProxier--><path d="M1764.5,93.13 C1761.62,111.65 1756.86,142.37 1753.37,164.85 " fill="none" id="ArrayConverter-&gt;ReflectStaticClassProxier" style="stroke: #A80036; stroke-width: 1.0; stroke-dasharray: 7.0,7.0;"/><polygon fill="#A80036" points="1752.6,169.8,1757.9166,161.5094,1753.3571,164.8576,1750.0088,160.2981,1752.6,169.8" style="stroke: #A80036; stroke-width: 1.0;"/><text fill="#000000" font-family="sans-serif" font-size="13" lengthAdjust="spacingAndGlyphs" textLength="23" x="1760" y="136.0669">has</text><!--MD5=[7ca2d57a180e0de7d7582616f39bebab]
link DateConverter to ReflectDynamicClassProxier--><path d="M1941.12,93.13 C1948.14,111.65 1959.79,142.37 1968.32,164.85 " fill="none" id="DateConverter-&gt;ReflectDynamicClassProxier" style="stroke: #A80036; stroke-width: 1.0; stroke-dasharray: 7.0,7.0;"/><polygon fill="#A80036" points="1970.2,169.8,1970.749,159.9665,1968.4272,165.1248,1963.2688,162.803,1970.2,169.8" style="stroke: #A80036; stroke-width: 1.0;"/><text fill="#000000" font-family="sans-serif" font-size="13" lengthAdjust="spacingAndGlyphs" textLength="23" x="1959" y="136.0669">has</text><!--MD5=[0aa2808a336cb97e7576d26645a09126]
link DateConverter to ReflectStaticClassProxier--><path d="M1920.28,93.03 C1907.05,106.77 1886.59,126.43 1866,140 C1850.09,150.49 1831.76,159.88 1814.4,167.74 " fill="none" id="DateConverter-&gt;ReflectStaticClassProxier" style="stroke: #A80036; stroke-width: 1.0; stroke-dasharray: 7.0,7.0;"/><polygon fill="#A80036" points="1809.53,169.91,1819.3788,169.8785,1814.0925,167.8647,1816.1064,162.5785,1809.53,169.91" style="stroke: #A80036; stroke-width: 1.0;"/><text fill="#000000" font-family="sans-serif" font-size="13" lengthAdjust="spacingAndGlyphs" textLength="23" x="1889" y="136.0669">has</text><!--MD5=[b736903573dae9f5120f5c4c5ef7b3da]
link JSValueConverter to JSValueDynamicConverter--><path d="M1368.37,93.21 C1355.95,100.71 1342.79,110.71 1334,123 C1325.34,135.12 1320.62,150.99 1318.06,164.55 " fill="none" id="JSValueConverter-&gt;JSValueDynamicConverter" style="stroke: #A80036; stroke-width: 1.0; stroke-dasharray: 7.0,7.0;"/><polygon fill="#A80036" points="1317.15,169.81,1322.6099,161.6131,1317.9928,164.8815,1314.7243,160.2645,1317.15,169.81" style="stroke: #A80036; stroke-width: 1.0;"/><text fill="#000000" font-family="sans-serif" font-size="13" lengthAdjust="spacingAndGlyphs" textLength="23" x="1335" y="136.0669">has</text><!--MD5=[aa3c613cabc9fdcf6603ec002f1ff42f]
link JSValueConverter to JSValueStaticConverter--><path d="M1420.21,93.13 C1441.57,112.04 1477.28,143.66 1502.8,166.26 " fill="none" id="JSValueConverter-&gt;JSValueStaticConverter" style="stroke: #A80036; stroke-width: 1.0; stroke-dasharray: 7.0,7.0;"/><polygon fill="#A80036" points="1506.81,169.8,1502.7238,160.8388,1503.0667,166.4853,1497.4202,166.8282,1506.81,169.8" style="stroke: #A80036; stroke-width: 1.0;"/><text fill="#000000" font-family="sans-serif" font-size="13" lengthAdjust="spacingAndGlyphs" textLength="23" x="1472" y="136.0669">has</text><!--MD5=[857af19e1614f5be9802ac96548f8273]
link FunctionConverter to FunctionDynamicClassProxier--><path d="M951.3,93.13 C975.2,112.12 1015.23,143.92 1043.69,166.54 " fill="none" id="FunctionConverter-&gt;FunctionDynamicClassProxier" style="stroke: #A80036; stroke-width: 1.0; stroke-dasharray: 7.0,7.0;"/><polygon fill="#A80036" points="1047.81,169.8,1043.2576,161.0664,1043.8973,166.687,1038.2767,167.3267,1047.81,169.8" style="stroke: #A80036; stroke-width: 1.0;"/><text fill="#000000" font-family="sans-serif" font-size="13" lengthAdjust="spacingAndGlyphs" textLength="23" x="1009" y="136.0669">has</text><!--MD5=[b113f5df571bf60f71ccf08f3185f931]
link FunctionConverter to FunctionStaticClassProxier--><path d="M917.79,93.13 C902.43,111.88 876.83,143.14 858.36,165.7 " fill="none" id="FunctionConverter-&gt;FunctionStaticClassProxier" style="stroke: #A80036; stroke-width: 1.0; stroke-dasharray: 7.0,7.0;"/><polygon fill="#A80036" points="855,169.8,863.7878,165.3532,858.16,165.9251,857.588,160.2973,855,169.8" style="stroke: #A80036; stroke-width: 1.0;"/><text fill="#000000" font-family="sans-serif" font-size="13" lengthAdjust="spacingAndGlyphs" textLength="23" x="893" y="136.0669">has</text><!--MD5=[a12ae2bc5cdc048a63fb6019241a7716]
link TupleClassConverter to TupleStaticClassProxier--><path d="M475.25,93.13 C501.54,112.19 545.67,144.18 576.88,166.81 " fill="none" id="TupleClassConverter-&gt;TupleStaticClassProxier" style="stroke: #A80036; stroke-width: 1.0; stroke-dasharray: 7.0,7.0;"/><polygon fill="#A80036" points="581.01,169.8,576.0733,161.2777,576.9626,166.8642,571.3761,167.7535,581.01,169.8" style="stroke: #A80036; stroke-width: 1.0;"/><text fill="#000000" font-family="sans-serif" font-size="13" lengthAdjust="spacingAndGlyphs" textLength="23" x="538" y="136.0669">has</text><!--MD5=[e280d353310c47aca1e0ffa4f1dc6bfa]
link TupleClassConverter to UnimplementedStaticConverter--><path d="M442.15,93.13 C429.6,111.81 408.7,142.88 393.55,165.42 " fill="none" id="TupleClassConverter-&gt;UnimplementedStaticConverter" style="stroke: #A80036; stroke-width: 1.0; stroke-dasharray: 7.0,7.0;"/><polygon fill="#A80036" points="390.6,169.8,398.933,164.5501,393.3834,165.6463,392.2872,160.0967,390.6,169.8" style="stroke: #A80036; stroke-width: 1.0;"/><text fill="#000000" font-family="sans-serif" font-size="13" lengthAdjust="spacingAndGlyphs" textLength="23" x="421" y="136.0669">has</text><!--MD5=[ec3a031f164764ed96c9d5fae800f307]
link RecordClassConverter to RecordStaticClassProxier--><path d="M203.46,93.13 C190.04,111.88 167.67,143.14 151.53,165.7 " fill="none" id="RecordClassConverter-&gt;RecordStaticClassProxier" style="stroke: #A80036; stroke-width: 1.0; stroke-dasharray: 7.0,7.0;"/><polygon fill="#A80036" points="148.6,169.8,157.091,164.8098,151.5102,165.7342,150.5858,160.1534,148.6,169.8" style="stroke: #A80036; stroke-width: 1.0;"/><text fill="#000000" font-family="sans-serif" font-size="13" lengthAdjust="spacingAndGlyphs" textLength="23" x="181" y="136.0669">has</text><!--MD5=[139d132e62b5e55e394ec89c2b97357f]
link RecordClassConverter to UnimplementedStaticConverter--><path d="M237.25,93.13 C263.54,112.19 307.67,144.18 338.88,166.81 " fill="none" id="RecordClassConverter-&gt;UnimplementedStaticConverter" style="stroke: #A80036; stroke-width: 1.0; stroke-dasharray: 7.0,7.0;"/><polygon fill="#A80036" points="343.01,169.8,338.0733,161.2777,338.9626,166.8642,333.3761,167.7535,343.01,169.8" style="stroke: #A80036; stroke-width: 1.0;"/><text fill="#000000" font-family="sans-serif" font-size="13" lengthAdjust="spacingAndGlyphs" textLength="23" x="300" y="136.0669">has</text><!--MD5=[a0b4f7581e1752db6233fed3e9edbc23]
@startuml converterInstances

package Instances  {
object ReflectDynamicClassConverter
ReflectDynamicClassConverter ..> ReflectDynamicClassProxier : has
ReflectDynamicClassConverter ..> UnimplementedDynamicConverter : has

object ReflectStaticClassConverter
ReflectStaticClassConverter ..> UnimplementedStaticConverter : has
ReflectStaticClassConverter ..> ReflectStaticClassProxier : has

object ArrayConverter
ArrayConverter ..> ReflectDynamicClassProxier : has
ArrayConverter ..> ReflectStaticClassProxier : has

object DateConverter
DateConverter ..> ReflectDynamicClassProxier : has
DateConverter ..> ReflectStaticClassProxier : has

object JSValueConverter
JSValueConverter ..> JSValueDynamicConverter : has
JSValueConverter ..> JSValueStaticConverter : has

object FunctionConverter
FunctionConverter ..> FunctionDynamicClassProxier : has
FunctionConverter ..> FunctionStaticClassProxier : has

object TupleClassConverter
TupleClassConverter ..> TupleStaticClassProxier : has
TupleClassConverter ..> UnimplementedStaticConverter : has

object RecordClassConverter
RecordClassConverter ..> RecordStaticClassProxier : has
RecordClassConverter ..> UnimplementedStaticConverter : has
}

@enduml

PlantUML version 1.2020.02(Sun Mar 01 10:22:07 UTC 2020)
(GPL source distribution)
Java Runtime: OpenJDK Runtime Environment
JVM: OpenJDK 64-Bit Server VM
Java Version: 17.0.16+8
Operating System: Linux
Default Encoding: UTF-8
Language: en
Country: null
--></g></svg>