<?xml version="1.0" encoding="UTF-8" standalone="no"?><svg xmlns="http://www.w3.org/2000/svg" xmlns:xlink="http://www.w3.org/1999/xlink" contentScriptType="application/ecmascript" contentStyleType="text/css" height="213px" preserveAspectRatio="none" style="width:203px;height:213px;" version="1.1" viewBox="0 0 203 213" width="203px" zoomAndPan="magnify"><defs><filter height="300%" id="f1pt37411x7n9j" width="300%" x="-1" y="-1"><feGaussianBlur result="blurOut" stdDeviation="2.0"/><feColorMatrix in="blurOut" result="blurOut2" type="matrix" values="0 0 0 0 0 0 0 0 0 0 0 0 0 0 0 0 0 0 .4 0"/><feOffset dx="4.0" dy="4.0" in="blurOut2" result="blurOut3"/><feBlend in="SourceGraphic" in2="blurOut3" mode="normal"/></filter></defs><g><!--MD5=[974cb797c2aefdb8da34d085fe9ee85d]
class IPayment--><rect fill="#FEFECE" filter="url(#f1pt37411x7n9j)" height="60.8047" id="IPayment" style="stroke: #A80036; stroke-width: 1.5;" width="162" x="18" y="8"/><ellipse cx="65.75" cy="24" fill="#B4A7E5" rx="11" ry="11" style="stroke: #A80036; stroke-width: 1.0;"/><path d="M61.6719,19.7656 L61.6719,17.6094 L69.0625,17.6094 L69.0625,19.7656 L66.5938,19.7656 L66.5938,27.8438 L69.0625,27.8438 L69.0625,30 L61.6719,30 L61.6719,27.8438 L64.1406,27.8438 L64.1406,19.7656 L61.6719,19.7656 Z "/><text fill="#000000" font-family="sans-serif" font-size="12" font-style="italic" lengthAdjust="spacingAndGlyphs" textLength="58" x="86.25" y="28.1543">IPayment</text><line style="stroke: #A80036; stroke-width: 1.5;" x1="19" x2="179" y1="40" y2="40"/><line style="stroke: #A80036; stroke-width: 1.5;" x1="19" x2="179" y1="48" y2="48"/><ellipse cx="29" cy="59" fill="#84BE84" rx="3" ry="3" style="stroke: #038048; stroke-width: 1.0;"/><text fill="#000000" font-family="sans-serif" font-size="11" lengthAdjust="spacingAndGlyphs" textLength="136" x="38" y="62.2104">pay(amount: float): bool</text><!--MD5=[6f2b73c3aed45695d915ae7bcdc92eeb]
class CreditCardPayment--><rect fill="#FEFECE" filter="url(#f1pt37411x7n9j)" height="73.6094" id="CreditCardPayment" style="stroke: #A80036; stroke-width: 1.5;" width="186" x="6" y="129"/><ellipse cx="36.3" cy="145" fill="#ADD1B2" rx="11" ry="11" style="stroke: #A80036; stroke-width: 1.0;"/><path d="M39.2688,150.6406 Q38.6906,150.9375 38.05,151.0781 Q37.4094,151.2344 36.7063,151.2344 Q34.2063,151.2344 32.8781,149.5938 Q31.5656,147.9375 31.5656,144.8125 Q31.5656,141.6875 32.8781,140.0313 Q34.2063,138.375 36.7063,138.375 Q37.4094,138.375 38.05,138.5313 Q38.7063,138.6875 39.2688,138.9844 L39.2688,141.7031 Q38.6438,141.125 38.05,140.8594 Q37.4563,140.5781 36.8313,140.5781 Q35.4875,140.5781 34.8,141.6563 Q34.1125,142.7188 34.1125,144.8125 Q34.1125,146.9063 34.8,147.9844 Q35.4875,149.0469 36.8313,149.0469 Q37.4563,149.0469 38.05,148.7813 Q38.6438,148.5 39.2688,147.9219 L39.2688,150.6406 Z "/><text fill="#000000" font-family="sans-serif" font-size="12" lengthAdjust="spacingAndGlyphs" textLength="120" x="53.7" y="149.1543">CreditCardPayment</text><line style="stroke: #A80036; stroke-width: 1.5;" x1="7" x2="191" y1="161" y2="161"/><line style="stroke: #A80036; stroke-width: 1.5;" x1="7" x2="191" y1="169" y2="169"/><ellipse cx="17" cy="180" fill="#84BE84" rx="3" ry="3" style="stroke: #038048; stroke-width: 1.0;"/><text fill="#000000" font-family="sans-serif" font-size="11" lengthAdjust="spacingAndGlyphs" textLength="136" x="26" y="183.2104">pay(amount: float): bool</text><ellipse cx="17" cy="192.8047" fill="#84BE84" rx="3" ry="3" style="stroke: #038048; stroke-width: 1.0;"/><text fill="#000000" font-family="sans-serif" font-size="11" lengthAdjust="spacingAndGlyphs" textLength="160" x="26" y="196.0151">payNew(amount: float): bool</text><!--MD5=[f9c7a6856359e5be8b69e230052c6186]
reverse link IPayment to CreditCardPayment--><path d="M99,89.5 C99,102.62 99,116.51 99,128.76 " fill="none" id="IPayment&lt;-CreditCardPayment" style="stroke: #A80036; stroke-width: 1.0; stroke-dasharray: 7.0,7.0;"/><polygon fill="none" points="92,89.24,99,69.24,106,89.24,92,89.24" style="stroke: #A80036; stroke-width: 1.0;"/><!--MD5=[621c7ff60558d1efb34d15fc8c3d2b23]
@startuml
interface IPayment {
    +pay(amount: float): bool
}

class CreditCardPayment implements IPayment {
    +pay(amount: float): bool
    +payNew(amount: float): bool

}
@enduml

PlantUML version 1.2020.02(Sun Mar 01 10:22:07 UTC 2020)
(GPL source distribution)
Java Runtime: OpenJDK Runtime Environment
JVM: OpenJDK 64-Bit Server VM
Java Version: 17.0.16+8
Operating System: Linux
Default Encoding: UTF-8
Language: en
Country: null
--></g></svg>