<?xml version="1.0" encoding="UTF-8" standalone="no"?><svg xmlns="http://www.w3.org/2000/svg" xmlns:xlink="http://www.w3.org/1999/xlink" contentScriptType="application/ecmascript" contentStyleType="text/css" height="958px" preserveAspectRatio="none" style="width:2606px;height:958px;" version="1.1" viewBox="0 0 2606 958" width="2606px" zoomAndPan="magnify"><defs><filter height="300%" id="f16jxtmw12af9f" width="300%" x="-1" y="-1"><feGaussianBlur result="blurOut" stdDeviation="2.0"/><feColorMatrix in="blurOut" result="blurOut2" type="matrix" values="0 0 0 0 0 0 0 0 0 0 0 0 0 0 0 0 0 0 .4 0"/><feOffset dx="4.0" dy="4.0" in="blurOut2" result="blurOut3"/><feBlend in="SourceGraphic" in2="blurOut3" mode="normal"/></filter></defs><g><!--MD5=[57c061c6e1376be8ac6e89e0d5a71403]
class NumericType--><rect fill="#FEFECE" filter="url(#f16jxtmw12af9f)" height="137.6328" id="NumericType" style="stroke: #A80036; stroke-width: 1.5;" width="112" x="13.18" y="810"/><ellipse cx="28.18" cy="826" fill="#EB937F" rx="11" ry="11" style="stroke: #A80036; stroke-width: 1.0;"/><path d="M32.2894,832 L24.5706,832 L24.5706,819.6094 L32.2894,819.6094 L32.2894,821.7656 L27.0238,821.7656 L27.0238,824.4375 L31.7894,824.4375 L31.7894,826.5938 L27.0238,826.5938 L27.0238,829.8438 L32.2894,829.8438 L32.2894,832 Z "/><text fill="#000000" font-family="sans-serif" font-size="12" lengthAdjust="spacingAndGlyphs" textLength="80" x="42.18" y="830.1543">NumericType</text><line style="stroke: #A80036; stroke-width: 1.5;" x1="14.18" x2="124.18" y1="842" y2="842"/><text fill="#000000" font-family="sans-serif" font-size="11" lengthAdjust="spacingAndGlyphs" textLength="46" x="19.18" y="856.2104">Boolean</text><text fill="#000000" font-family="sans-serif" font-size="11" lengthAdjust="spacingAndGlyphs" textLength="25" x="19.18" y="869.0151">Byte</text><text fill="#000000" font-family="sans-serif" font-size="11" lengthAdjust="spacingAndGlyphs" textLength="31" x="19.18" y="881.8198">Short</text><text fill="#000000" font-family="sans-serif" font-size="11" lengthAdjust="spacingAndGlyphs" textLength="14" x="19.18" y="894.6245">Int</text><text fill="#000000" font-family="sans-serif" font-size="11" lengthAdjust="spacingAndGlyphs" textLength="27" x="19.18" y="907.4292">Long</text><text fill="#000000" font-family="sans-serif" font-size="11" lengthAdjust="spacingAndGlyphs" textLength="27" x="19.18" y="920.2339">Float</text><text fill="#000000" font-family="sans-serif" font-size="11" lengthAdjust="spacingAndGlyphs" textLength="39" x="19.18" y="933.0386">Double</text><line style="stroke: #A80036; stroke-width: 1.5;" x1="14.18" x2="124.18" y1="939.6328" y2="939.6328"/><!--MD5=[f1926c784da000dbf2f9e262c4c094a8]
class Numeric--><rect fill="#FEFECE" filter="url(#f16jxtmw12af9f)" height="265.6797" id="Numeric" style="stroke: #A80036; stroke-width: 1.5;" width="274" x="107.18" y="467"/><ellipse cx="214.43" cy="483" fill="#ADD1B2" rx="11" ry="11" style="stroke: #A80036; stroke-width: 1.0;"/><path d="M217.3988,488.6406 Q216.8206,488.9375 216.18,489.0781 Q215.5394,489.2344 214.8363,489.2344 Q212.3363,489.2344 211.0081,487.5938 Q209.6956,485.9375 209.6956,482.8125 Q209.6956,479.6875 211.0081,478.0313 Q212.3363,476.375 214.8363,476.375 Q215.5394,476.375 216.18,476.5313 Q216.8363,476.6875 217.3988,476.9844 L217.3988,479.7031 Q216.7738,479.125 216.18,478.8594 Q215.5863,478.5781 214.9613,478.5781 Q213.6175,478.5781 212.93,479.6563 Q212.2425,480.7188 212.2425,482.8125 Q212.2425,484.9063 212.93,485.9844 Q213.6175,487.0469 214.9613,487.0469 Q215.5863,487.0469 216.18,486.7813 Q216.7738,486.5 217.3988,485.9219 L217.3988,488.6406 Z "/><text fill="#000000" font-family="sans-serif" font-size="12" lengthAdjust="spacingAndGlyphs" textLength="51" x="234.93" y="487.1543">Numeric</text><line style="stroke: #A80036; stroke-width: 1.5;" x1="108.18" x2="380.18" y1="499" y2="499"/><rect fill="none" height="6" style="stroke: #C82930; stroke-width: 1.0;" width="6" x="115.18" y="507"/><text fill="#000000" font-family="sans-serif" font-size="11" lengthAdjust="spacingAndGlyphs" textLength="60" x="127.18" y="513.2104">value: U64</text><rect fill="none" height="6" style="stroke: #C82930; stroke-width: 1.0;" width="6" x="115.18" y="519.8047"/><text fill="#000000" font-family="sans-serif" font-size="11" lengthAdjust="spacingAndGlyphs" textLength="106" x="127.18" y="526.0151">type: NumericType</text><line style="stroke: #A80036; stroke-width: 1.5;" x1="108.18" x2="380.18" y1="532.6094" y2="532.6094"/><ellipse cx="118.18" cy="543.6094" fill="#84BE84" rx="3" ry="3" style="stroke: #038048; stroke-width: 1.0;"/><text fill="#000000" font-family="sans-serif" font-size="11" font-weight="bold" lengthAdjust="spacingAndGlyphs" textLength="36" x="127.18" y="546.8198">static</text><text fill="#000000" font-family="sans-serif" font-size="11" lengthAdjust="spacingAndGlyphs" textLength="200" x="167.18" y="546.8198">FromBoolean(value: bool): Numeric</text><ellipse cx="118.18" cy="556.4141" fill="#84BE84" rx="3" ry="3" style="stroke: #038048; stroke-width: 1.0;"/><text fill="#000000" font-family="sans-serif" font-size="11" font-weight="bold" lengthAdjust="spacingAndGlyphs" textLength="36" x="127.18" y="559.6245">static</text><text fill="#000000" font-family="sans-serif" font-size="11" lengthAdjust="spacingAndGlyphs" textLength="183" x="167.18" y="559.6245">FromByte(value: uint8): Numeric</text><ellipse cx="118.18" cy="569.2188" fill="#84BE84" rx="3" ry="3" style="stroke: #038048; stroke-width: 1.0;"/><text fill="#000000" font-family="sans-serif" font-size="11" font-weight="bold" lengthAdjust="spacingAndGlyphs" textLength="36" x="127.18" y="572.4292">static</text><text fill="#000000" font-family="sans-serif" font-size="11" lengthAdjust="spacingAndGlyphs" textLength="196" x="167.18" y="572.4292">FromShort(value: uint16): Numeric</text><ellipse cx="118.18" cy="582.0234" fill="#84BE84" rx="3" ry="3" style="stroke: #038048; stroke-width: 1.0;"/><text fill="#000000" font-family="sans-serif" font-size="11" font-weight="bold" lengthAdjust="spacingAndGlyphs" textLength="36" x="127.18" y="585.2339">static</text><text fill="#000000" font-family="sans-serif" font-size="11" lengthAdjust="spacingAndGlyphs" textLength="172" x="167.18" y="585.2339">FromInt(value: int32): Numeric</text><ellipse cx="118.18" cy="594.8281" fill="#84BE84" rx="3" ry="3" style="stroke: #038048; stroke-width: 1.0;"/><text fill="#000000" font-family="sans-serif" font-size="11" font-weight="bold" lengthAdjust="spacingAndGlyphs" textLength="36" x="127.18" y="598.0386">static</text><text fill="#000000" font-family="sans-serif" font-size="11" lengthAdjust="spacingAndGlyphs" textLength="185" x="167.18" y="598.0386">FromLong(value: int64): Numeric</text><ellipse cx="118.18" cy="607.6328" fill="#84BE84" rx="3" ry="3" style="stroke: #038048; stroke-width: 1.0;"/><text fill="#000000" font-family="sans-serif" font-size="11" font-weight="bold" lengthAdjust="spacingAndGlyphs" textLength="36" x="127.18" y="610.8433">static</text><text fill="#000000" font-family="sans-serif" font-size="11" lengthAdjust="spacingAndGlyphs" textLength="196" x="167.18" y="610.8433">FromFloat(value: float32): Numeric</text><ellipse cx="118.18" cy="620.4375" fill="#84BE84" rx="3" ry="3" style="stroke: #038048; stroke-width: 1.0;"/><text fill="#000000" font-family="sans-serif" font-size="11" font-weight="bold" lengthAdjust="spacingAndGlyphs" textLength="36" x="127.18" y="623.6479">static</text><text fill="#000000" font-family="sans-serif" font-size="11" lengthAdjust="spacingAndGlyphs" textLength="208" x="167.18" y="623.6479">FromDouble(value: float64): Numeric</text><ellipse cx="118.18" cy="633.2422" fill="#84BE84" rx="3" ry="3" style="stroke: #038048; stroke-width: 1.0;"/><text fill="#000000" font-family="sans-serif" font-size="11" lengthAdjust="spacingAndGlyphs" textLength="100" x="127.18" y="636.4526">ToBoolean(): bool</text><ellipse cx="118.18" cy="646.0469" fill="#84BE84" rx="3" ry="3" style="stroke: #038048; stroke-width: 1.0;"/><text fill="#000000" font-family="sans-serif" font-size="11" lengthAdjust="spacingAndGlyphs" textLength="83" x="127.18" y="649.2573">ToByte(): uint8</text><ellipse cx="118.18" cy="658.8516" fill="#84BE84" rx="3" ry="3" style="stroke: #038048; stroke-width: 1.0;"/><text fill="#000000" font-family="sans-serif" font-size="11" lengthAdjust="spacingAndGlyphs" textLength="96" x="127.18" y="662.062">ToShort(): uint16</text><ellipse cx="118.18" cy="671.6563" fill="#84BE84" rx="3" ry="3" style="stroke: #038048; stroke-width: 1.0;"/><text fill="#000000" font-family="sans-serif" font-size="11" lengthAdjust="spacingAndGlyphs" textLength="72" x="127.18" y="674.8667">ToInt(): int32</text><ellipse cx="118.18" cy="684.4609" fill="#84BE84" rx="3" ry="3" style="stroke: #038048; stroke-width: 1.0;"/><text fill="#000000" font-family="sans-serif" font-size="11" lengthAdjust="spacingAndGlyphs" textLength="85" x="127.18" y="687.6714">ToLong(): int64</text><ellipse cx="118.18" cy="697.2656" fill="#84BE84" rx="3" ry="3" style="stroke: #038048; stroke-width: 1.0;"/><text fill="#000000" font-family="sans-serif" font-size="11" lengthAdjust="spacingAndGlyphs" textLength="96" x="127.18" y="700.4761">ToFloat(): float32</text><ellipse cx="118.18" cy="710.0703" fill="#84BE84" rx="3" ry="3" style="stroke: #038048; stroke-width: 1.0;"/><text fill="#000000" font-family="sans-serif" font-size="11" lengthAdjust="spacingAndGlyphs" textLength="108" x="127.18" y="713.2808">ToDouble(): float64</text><ellipse cx="118.18" cy="722.875" fill="#84BE84" rx="3" ry="3" style="stroke: #038048; stroke-width: 1.0;"/><text fill="#000000" font-family="sans-serif" font-size="11" lengthAdjust="spacingAndGlyphs" textLength="137" x="127.18" y="726.0854">GetType(): NumericType</text><!--MD5=[653f5925a6511c77318a200112c89992]
class ConverterBase--><rect fill="#FEFECE" filter="url(#f16jxtmw12af9f)" height="73.6094" id="ConverterBase" style="stroke: #A80036; stroke-width: 1.5;" width="334" x="1160.18" y="8"/><ellipse cx="1277.43" cy="24" fill="#B4A7E5" rx="11" ry="11" style="stroke: #A80036; stroke-width: 1.0;"/><path d="M1273.3519,19.7656 L1273.3519,17.6094 L1280.7425,17.6094 L1280.7425,19.7656 L1278.2738,19.7656 L1278.2738,27.8438 L1280.7425,27.8438 L1280.7425,30 L1273.3519,30 L1273.3519,27.8438 L1275.8206,27.8438 L1275.8206,19.7656 L1273.3519,19.7656 Z "/><text fill="#000000" font-family="sans-serif" font-size="12" font-style="italic" lengthAdjust="spacingAndGlyphs" textLength="91" x="1297.93" y="28.1543">ConverterBase</text><line style="stroke: #A80036; stroke-width: 1.5;" x1="1161.18" x2="1493.18" y1="40" y2="40"/><line style="stroke: #A80036; stroke-width: 1.5;" x1="1161.18" x2="1493.18" y1="48" y2="48"/><ellipse cx="1171.18" cy="59" fill="#84BE84" rx="3" ry="3" style="stroke: #038048; stroke-width: 1.0;"/><text fill="#000000" font-family="sans-serif" font-size="11" lengthAdjust="spacingAndGlyphs" textLength="279" x="1180.18" y="62.2104">ConvertToStatic(jsValue: napi_value): EtsObject *</text><ellipse cx="1171.18" cy="71.8047" fill="#84BE84" rx="3" ry="3" style="stroke: #038048; stroke-width: 1.0;"/><text fill="#000000" font-family="sans-serif" font-size="11" lengthAdjust="spacingAndGlyphs" textLength="308" x="1180.18" y="75.0151">ConvertToDynamic(etsObject: EtsObject *): napi_value</text><!--MD5=[db5372520d7d852ac2afb897b30c3d1e]
class NullTypeConverter--><rect fill="#FEFECE" filter="url(#f16jxtmw12af9f)" height="73.6094" id="NullTypeConverter" style="stroke: #A80036; stroke-width: 1.5;" width="334" x="791.18" y="143"/><ellipse cx="897.43" cy="159" fill="#ADD1B2" rx="11" ry="11" style="stroke: #A80036; stroke-width: 1.0;"/><path d="M900.3988,164.6406 Q899.8206,164.9375 899.18,165.0781 Q898.5394,165.2344 897.8363,165.2344 Q895.3363,165.2344 894.0081,163.5938 Q892.6956,161.9375 892.6956,158.8125 Q892.6956,155.6875 894.0081,154.0313 Q895.3363,152.375 897.8363,152.375 Q898.5394,152.375 899.18,152.5313 Q899.8363,152.6875 900.3988,152.9844 L900.3988,155.7031 Q899.7738,155.125 899.18,154.8594 Q898.5863,154.5781 897.9613,154.5781 Q896.6175,154.5781 895.93,155.6563 Q895.2425,156.7188 895.2425,158.8125 Q895.2425,160.9063 895.93,161.9844 Q896.6175,163.0469 897.9613,163.0469 Q898.5863,163.0469 899.18,162.7813 Q899.7738,162.5 900.3988,161.9219 L900.3988,164.6406 Z "/><text fill="#000000" font-family="sans-serif" font-size="12" lengthAdjust="spacingAndGlyphs" textLength="113" x="917.93" y="163.1543">NullTypeConverter</text><line style="stroke: #A80036; stroke-width: 1.5;" x1="792.18" x2="1124.18" y1="175" y2="175"/><line style="stroke: #A80036; stroke-width: 1.5;" x1="792.18" x2="1124.18" y1="183" y2="183"/><ellipse cx="802.18" cy="194" fill="#84BE84" rx="3" ry="3" style="stroke: #038048; stroke-width: 1.0;"/><text fill="#000000" font-family="sans-serif" font-size="11" lengthAdjust="spacingAndGlyphs" textLength="279" x="811.18" y="197.2104">ConvertToStatic(jsValue: napi_value): EtsObject *</text><ellipse cx="802.18" cy="206.8047" fill="#84BE84" rx="3" ry="3" style="stroke: #038048; stroke-width: 1.0;"/><text fill="#000000" font-family="sans-serif" font-size="11" lengthAdjust="spacingAndGlyphs" textLength="308" x="811.18" y="210.0151">ConvertToDynamic(etsObject: EtsObject *): napi_value</text><!--MD5=[4de7bfc40bdfaea4ec9fa0aa2a15ef27]
class UndefinedConverter--><rect fill="#FEFECE" filter="url(#f16jxtmw12af9f)" height="73.6094" id="UndefinedConverter" style="stroke: #A80036; stroke-width: 1.5;" width="334" x="1160.18" y="143"/><ellipse cx="1260.43" cy="159" fill="#ADD1B2" rx="11" ry="11" style="stroke: #A80036; stroke-width: 1.0;"/><path d="M1263.3988,164.6406 Q1262.8206,164.9375 1262.18,165.0781 Q1261.5394,165.2344 1260.8363,165.2344 Q1258.3363,165.2344 1257.0081,163.5938 Q1255.6956,161.9375 1255.6956,158.8125 Q1255.6956,155.6875 1257.0081,154.0313 Q1258.3363,152.375 1260.8363,152.375 Q1261.5394,152.375 1262.18,152.5313 Q1262.8363,152.6875 1263.3988,152.9844 L1263.3988,155.7031 Q1262.7738,155.125 1262.18,154.8594 Q1261.5863,154.5781 1260.9613,154.5781 Q1259.6175,154.5781 1258.93,155.6563 Q1258.2425,156.7188 1258.2425,158.8125 Q1258.2425,160.9063 1258.93,161.9844 Q1259.6175,163.0469 1260.9613,163.0469 Q1261.5863,163.0469 1262.18,162.7813 Q1262.7738,162.5 1263.3988,161.9219 L1263.3988,164.6406 Z "/><text fill="#000000" font-family="sans-serif" font-size="12" lengthAdjust="spacingAndGlyphs" textLength="125" x="1280.93" y="163.1543">UndefinedConverter</text><line style="stroke: #A80036; stroke-width: 1.5;" x1="1161.18" x2="1493.18" y1="175" y2="175"/><line style="stroke: #A80036; stroke-width: 1.5;" x1="1161.18" x2="1493.18" y1="183" y2="183"/><ellipse cx="1171.18" cy="194" fill="#84BE84" rx="3" ry="3" style="stroke: #038048; stroke-width: 1.0;"/><text fill="#000000" font-family="sans-serif" font-size="11" lengthAdjust="spacingAndGlyphs" textLength="279" x="1180.18" y="197.2104">ConvertToStatic(jsValue: napi_value): EtsObject *</text><ellipse cx="1171.18" cy="206.8047" fill="#84BE84" rx="3" ry="3" style="stroke: #038048; stroke-width: 1.0;"/><text fill="#000000" font-family="sans-serif" font-size="11" lengthAdjust="spacingAndGlyphs" textLength="308" x="1180.18" y="210.0151">ConvertToDynamic(etsObject: EtsObject *): napi_value</text><!--MD5=[19f675f6e53969a0f6920a9112a95cc8]
class PrimitiveConverter--><rect fill="#FEFECE" filter="url(#f16jxtmw12af9f)" height="73.6094" id="PrimitiveConverter" style="stroke: #A80036; stroke-width: 1.5;" width="334" x="1529.18" y="143"/><ellipse cx="1635.43" cy="159" fill="#ADD1B2" rx="11" ry="11" style="stroke: #A80036; stroke-width: 1.0;"/><path d="M1638.3988,164.6406 Q1637.8206,164.9375 1637.18,165.0781 Q1636.5394,165.2344 1635.8363,165.2344 Q1633.3363,165.2344 1632.0081,163.5938 Q1630.6956,161.9375 1630.6956,158.8125 Q1630.6956,155.6875 1632.0081,154.0313 Q1633.3363,152.375 1635.8363,152.375 Q1636.5394,152.375 1637.18,152.5313 Q1637.8363,152.6875 1638.3988,152.9844 L1638.3988,155.7031 Q1637.7738,155.125 1637.18,154.8594 Q1636.5863,154.5781 1635.9613,154.5781 Q1634.6175,154.5781 1633.93,155.6563 Q1633.2425,156.7188 1633.2425,158.8125 Q1633.2425,160.9063 1633.93,161.9844 Q1634.6175,163.0469 1635.9613,163.0469 Q1636.5863,163.0469 1637.18,162.7813 Q1637.7738,162.5 1638.3988,161.9219 L1638.3988,164.6406 Z "/><text fill="#000000" font-family="sans-serif" font-size="12" lengthAdjust="spacingAndGlyphs" textLength="113" x="1655.93" y="163.1543">PrimitiveConverter</text><line style="stroke: #A80036; stroke-width: 1.5;" x1="1530.18" x2="1862.18" y1="175" y2="175"/><line style="stroke: #A80036; stroke-width: 1.5;" x1="1530.18" x2="1862.18" y1="183" y2="183"/><ellipse cx="1540.18" cy="194" fill="#84BE84" rx="3" ry="3" style="stroke: #038048; stroke-width: 1.0;"/><text fill="#000000" font-family="sans-serif" font-size="11" lengthAdjust="spacingAndGlyphs" textLength="279" x="1549.18" y="197.2104">ConvertToStatic(jsValue: napi_value): EtsObject *</text><ellipse cx="1540.18" cy="206.8047" fill="#84BE84" rx="3" ry="3" style="stroke: #038048; stroke-width: 1.0;"/><text fill="#000000" font-family="sans-serif" font-size="11" lengthAdjust="spacingAndGlyphs" textLength="308" x="1549.18" y="210.0151">ConvertToDynamic(etsObject: EtsObject *): napi_value</text><!--MD5=[e8ed686604b90a8c3024ccb0ac0c4236]
class NumericConverter--><rect fill="#FEFECE" filter="url(#f16jxtmw12af9f)" height="112.0234" id="NumericConverter" style="stroke: #A80036; stroke-width: 1.5;" width="354" x="959.18" y="278"/><ellipse cx="1075.93" cy="294" fill="#ADD1B2" rx="11" ry="11" style="stroke: #A80036; stroke-width: 1.0;"/><path d="M1078.8987,299.6406 Q1078.3206,299.9375 1077.68,300.0781 Q1077.0394,300.2344 1076.3362,300.2344 Q1073.8362,300.2344 1072.5081,298.5938 Q1071.1956,296.9375 1071.1956,293.8125 Q1071.1956,290.6875 1072.5081,289.0313 Q1073.8362,287.375 1076.3362,287.375 Q1077.0394,287.375 1077.68,287.5313 Q1078.3362,287.6875 1078.8987,287.9844 L1078.8987,290.7031 Q1078.2737,290.125 1077.68,289.8594 Q1077.0862,289.5781 1076.4612,289.5781 Q1075.1175,289.5781 1074.43,290.6563 Q1073.7425,291.7188 1073.7425,293.8125 Q1073.7425,295.9063 1074.43,296.9844 Q1075.1175,298.0469 1076.4612,298.0469 Q1077.0862,298.0469 1077.68,297.7813 Q1078.2737,297.5 1078.8987,296.9219 L1078.8987,299.6406 Z "/><text fill="#000000" font-family="sans-serif" font-size="12" lengthAdjust="spacingAndGlyphs" textLength="112" x="1096.43" y="298.1543">NumericConverter</text><line style="stroke: #A80036; stroke-width: 1.5;" x1="960.18" x2="1312.18" y1="310" y2="310"/><line style="stroke: #A80036; stroke-width: 1.5;" x1="960.18" x2="1312.18" y1="318" y2="318"/><ellipse cx="970.18" cy="329" fill="#84BE84" rx="3" ry="3" style="stroke: #038048; stroke-width: 1.0;"/><text fill="#000000" font-family="sans-serif" font-size="11" lengthAdjust="spacingAndGlyphs" textLength="279" x="979.18" y="332.2104">ConvertToStatic(jsValue: napi_value): EtsObject *</text><ellipse cx="970.18" cy="341.8047" fill="#84BE84" rx="3" ry="3" style="stroke: #038048; stroke-width: 1.0;"/><text fill="#000000" font-family="sans-serif" font-size="11" lengthAdjust="spacingAndGlyphs" textLength="308" x="979.18" y="345.0151">ConvertToDynamic(etsObject: EtsObject *): napi_value</text><text fill="#000000" font-family="sans-serif" font-size="11" lengthAdjust="spacingAndGlyphs" textLength="0" x="983.18" y="357.8198"/><ellipse cx="970.18" cy="367.4141" fill="#84BE84" rx="3" ry="3" style="stroke: #038048; stroke-width: 1.0;"/><text fill="#000000" font-family="sans-serif" font-size="11" font-weight="bold" lengthAdjust="spacingAndGlyphs" textLength="41" x="979.18" y="370.6245">virtual</text><text fill="#000000" font-family="sans-serif" font-size="11" lengthAdjust="spacingAndGlyphs" textLength="262" x="1024.18" y="370.6245">ConvertToStatic(jsValue: napi_value): Numeric</text><ellipse cx="970.18" cy="380.2188" fill="#84BE84" rx="3" ry="3" style="stroke: #038048; stroke-width: 1.0;"/><text fill="#000000" font-family="sans-serif" font-size="11" font-weight="bold" lengthAdjust="spacingAndGlyphs" textLength="41" x="979.18" y="383.4292">virtual</text><text fill="#000000" font-family="sans-serif" font-size="11" lengthAdjust="spacingAndGlyphs" textLength="283" x="1024.18" y="383.4292">ConvertToDynamic(numeric: Numeric): napi_value</text><path d="M1347.68,321.5 L1347.68,330 L1313.27,334 L1347.68,338 L1347.68,346.6328 A0,0 0 0 0 1347.68,346.6328 L1694.68,346.6328 A0,0 0 0 0 1694.68,346.6328 L1694.68,331.5 L1684.68,321.5 L1347.68,321.5 A0,0 0 0 0 1347.68,321.5 " fill="#FBFB77" filter="url(#f16jxtmw12af9f)" style="stroke: #A80036; stroke-width: 1.0;"/><path d="M1684.68,321.5 L1684.68,331.5 L1694.68,331.5 L1684.68,321.5 " fill="#FBFB77" style="stroke: #A80036; stroke-width: 1.0;"/><text fill="#000000" font-family="sans-serif" font-size="13" lengthAdjust="spacingAndGlyphs" textLength="326" x="1353.68" y="338.5669">后两个方法是虚方法, 需要在子类中实现. 子类会坚持传入Numeric是否是自己的类型</text><!--MD5=[2c67e58eb5d6a5a53b8636c68ca38e04]
class BooleanConverter--><rect fill="#FEFECE" filter="url(#f16jxtmw12af9f)" height="112.0234" id="BooleanConverter" style="stroke: #A80036; stroke-width: 1.5;" width="334" x="416.18" y="544"/><ellipse cx="522.93" cy="560" fill="#ADD1B2" rx="11" ry="11" style="stroke: #A80036; stroke-width: 1.0;"/><path d="M525.8988,565.6406 Q525.3206,565.9375 524.68,566.0781 Q524.0394,566.2344 523.3363,566.2344 Q520.8363,566.2344 519.5081,564.5938 Q518.1956,562.9375 518.1956,559.8125 Q518.1956,556.6875 519.5081,555.0313 Q520.8363,553.375 523.3363,553.375 Q524.0394,553.375 524.68,553.5313 Q525.3363,553.6875 525.8988,553.9844 L525.8988,556.7031 Q525.2738,556.125 524.68,555.8594 Q524.0863,555.5781 523.4613,555.5781 Q522.1175,555.5781 521.43,556.6563 Q520.7425,557.7188 520.7425,559.8125 Q520.7425,561.9063 521.43,562.9844 Q522.1175,564.0469 523.4613,564.0469 Q524.0863,564.0469 524.68,563.7813 Q525.2738,563.5 525.8988,562.9219 L525.8988,565.6406 Z "/><text fill="#000000" font-family="sans-serif" font-size="12" lengthAdjust="spacingAndGlyphs" textLength="112" x="543.43" y="564.1543">BooleanConverter</text><line style="stroke: #A80036; stroke-width: 1.5;" x1="417.18" x2="749.18" y1="576" y2="576"/><line style="stroke: #A80036; stroke-width: 1.5;" x1="417.18" x2="749.18" y1="584" y2="584"/><ellipse cx="427.18" cy="595" fill="#84BE84" rx="3" ry="3" style="stroke: #038048; stroke-width: 1.0;"/><text fill="#000000" font-family="sans-serif" font-size="11" lengthAdjust="spacingAndGlyphs" textLength="279" x="436.18" y="598.2104">ConvertToStatic(jsValue: napi_value): EtsObject *</text><ellipse cx="427.18" cy="607.8047" fill="#84BE84" rx="3" ry="3" style="stroke: #038048; stroke-width: 1.0;"/><text fill="#000000" font-family="sans-serif" font-size="11" lengthAdjust="spacingAndGlyphs" textLength="308" x="436.18" y="611.0151">ConvertToDynamic(etsObject: EtsObject *): napi_value</text><text fill="#000000" font-family="sans-serif" font-size="11" lengthAdjust="spacingAndGlyphs" textLength="0" x="440.18" y="623.8198"/><ellipse cx="427.18" cy="633.4141" fill="#84BE84" rx="3" ry="3" style="stroke: #038048; stroke-width: 1.0;"/><text fill="#000000" font-family="sans-serif" font-size="11" lengthAdjust="spacingAndGlyphs" textLength="262" x="436.18" y="636.6245">ConvertToStatic(jsValue: napi_value): Numeric</text><ellipse cx="427.18" cy="646.2188" fill="#84BE84" rx="3" ry="3" style="stroke: #038048; stroke-width: 1.0;"/><text fill="#000000" font-family="sans-serif" font-size="11" lengthAdjust="spacingAndGlyphs" textLength="283" x="436.18" y="649.4292">ConvertToDynamic(numeric: Numeric): napi_value</text><!--MD5=[aeeaddc13cf3c9a40c315efb93db12c5]
class ByteConverter--><rect fill="#FEFECE" filter="url(#f16jxtmw12af9f)" height="112.0234" id="ByteConverter" style="stroke: #A80036; stroke-width: 1.5;" width="334" x="785.18" y="544"/><ellipse cx="903.93" cy="560" fill="#ADD1B2" rx="11" ry="11" style="stroke: #A80036; stroke-width: 1.0;"/><path d="M906.8988,565.6406 Q906.3206,565.9375 905.68,566.0781 Q905.0394,566.2344 904.3363,566.2344 Q901.8363,566.2344 900.5081,564.5938 Q899.1956,562.9375 899.1956,559.8125 Q899.1956,556.6875 900.5081,555.0313 Q901.8363,553.375 904.3363,553.375 Q905.0394,553.375 905.68,553.5313 Q906.3363,553.6875 906.8988,553.9844 L906.8988,556.7031 Q906.2738,556.125 905.68,555.8594 Q905.0863,555.5781 904.4613,555.5781 Q903.1175,555.5781 902.43,556.6563 Q901.7425,557.7188 901.7425,559.8125 Q901.7425,561.9063 902.43,562.9844 Q903.1175,564.0469 904.4613,564.0469 Q905.0863,564.0469 905.68,563.7813 Q906.2738,563.5 906.8988,562.9219 L906.8988,565.6406 Z "/><text fill="#000000" font-family="sans-serif" font-size="12" lengthAdjust="spacingAndGlyphs" textLength="88" x="924.43" y="564.1543">ByteConverter</text><line style="stroke: #A80036; stroke-width: 1.5;" x1="786.18" x2="1118.18" y1="576" y2="576"/><line style="stroke: #A80036; stroke-width: 1.5;" x1="786.18" x2="1118.18" y1="584" y2="584"/><ellipse cx="796.18" cy="595" fill="#84BE84" rx="3" ry="3" style="stroke: #038048; stroke-width: 1.0;"/><text fill="#000000" font-family="sans-serif" font-size="11" lengthAdjust="spacingAndGlyphs" textLength="279" x="805.18" y="598.2104">ConvertToStatic(jsValue: napi_value): EtsObject *</text><ellipse cx="796.18" cy="607.8047" fill="#84BE84" rx="3" ry="3" style="stroke: #038048; stroke-width: 1.0;"/><text fill="#000000" font-family="sans-serif" font-size="11" lengthAdjust="spacingAndGlyphs" textLength="308" x="805.18" y="611.0151">ConvertToDynamic(etsObject: EtsObject *): napi_value</text><text fill="#000000" font-family="sans-serif" font-size="11" lengthAdjust="spacingAndGlyphs" textLength="0" x="809.18" y="623.8198"/><ellipse cx="796.18" cy="633.4141" fill="#84BE84" rx="3" ry="3" style="stroke: #038048; stroke-width: 1.0;"/><text fill="#000000" font-family="sans-serif" font-size="11" lengthAdjust="spacingAndGlyphs" textLength="262" x="805.18" y="636.6245">ConvertToStatic(jsValue: napi_value): Numeric</text><ellipse cx="796.18" cy="646.2188" fill="#84BE84" rx="3" ry="3" style="stroke: #038048; stroke-width: 1.0;"/><text fill="#000000" font-family="sans-serif" font-size="11" lengthAdjust="spacingAndGlyphs" textLength="283" x="805.18" y="649.4292">ConvertToDynamic(numeric: Numeric): napi_value</text><!--MD5=[34dfb7064c299e0034e7f0bcaddeb46e]
class ShortConverter--><rect fill="#FEFECE" filter="url(#f16jxtmw12af9f)" height="112.0234" id="ShortConverter" style="stroke: #A80036; stroke-width: 1.5;" width="334" x="1154.18" y="544"/><ellipse cx="1269.43" cy="560" fill="#ADD1B2" rx="11" ry="11" style="stroke: #A80036; stroke-width: 1.0;"/><path d="M1272.3988,565.6406 Q1271.8206,565.9375 1271.18,566.0781 Q1270.5394,566.2344 1269.8363,566.2344 Q1267.3363,566.2344 1266.0081,564.5938 Q1264.6956,562.9375 1264.6956,559.8125 Q1264.6956,556.6875 1266.0081,555.0313 Q1267.3363,553.375 1269.8363,553.375 Q1270.5394,553.375 1271.18,553.5313 Q1271.8363,553.6875 1272.3988,553.9844 L1272.3988,556.7031 Q1271.7738,556.125 1271.18,555.8594 Q1270.5863,555.5781 1269.9613,555.5781 Q1268.6175,555.5781 1267.93,556.6563 Q1267.2425,557.7188 1267.2425,559.8125 Q1267.2425,561.9063 1267.93,562.9844 Q1268.6175,564.0469 1269.9613,564.0469 Q1270.5863,564.0469 1271.18,563.7813 Q1271.7738,563.5 1272.3988,562.9219 L1272.3988,565.6406 Z "/><text fill="#000000" font-family="sans-serif" font-size="12" lengthAdjust="spacingAndGlyphs" textLength="95" x="1289.93" y="564.1543">ShortConverter</text><line style="stroke: #A80036; stroke-width: 1.5;" x1="1155.18" x2="1487.18" y1="576" y2="576"/><line style="stroke: #A80036; stroke-width: 1.5;" x1="1155.18" x2="1487.18" y1="584" y2="584"/><ellipse cx="1165.18" cy="595" fill="#84BE84" rx="3" ry="3" style="stroke: #038048; stroke-width: 1.0;"/><text fill="#000000" font-family="sans-serif" font-size="11" lengthAdjust="spacingAndGlyphs" textLength="279" x="1174.18" y="598.2104">ConvertToStatic(jsValue: napi_value): EtsObject *</text><ellipse cx="1165.18" cy="607.8047" fill="#84BE84" rx="3" ry="3" style="stroke: #038048; stroke-width: 1.0;"/><text fill="#000000" font-family="sans-serif" font-size="11" lengthAdjust="spacingAndGlyphs" textLength="308" x="1174.18" y="611.0151">ConvertToDynamic(etsObject: EtsObject *): napi_value</text><text fill="#000000" font-family="sans-serif" font-size="11" lengthAdjust="spacingAndGlyphs" textLength="0" x="1178.18" y="623.8198"/><ellipse cx="1165.18" cy="633.4141" fill="#84BE84" rx="3" ry="3" style="stroke: #038048; stroke-width: 1.0;"/><text fill="#000000" font-family="sans-serif" font-size="11" lengthAdjust="spacingAndGlyphs" textLength="262" x="1174.18" y="636.6245">ConvertToStatic(jsValue: napi_value): Numeric</text><ellipse cx="1165.18" cy="646.2188" fill="#84BE84" rx="3" ry="3" style="stroke: #038048; stroke-width: 1.0;"/><text fill="#000000" font-family="sans-serif" font-size="11" lengthAdjust="spacingAndGlyphs" textLength="283" x="1174.18" y="649.4292">ConvertToDynamic(numeric: Numeric): napi_value</text><!--MD5=[9a1a620840ebe7d105163bddbb8419de]
class LongConverter--><rect fill="#FEFECE" filter="url(#f16jxtmw12af9f)" height="112.0234" id="LongConverter" style="stroke: #A80036; stroke-width: 1.5;" width="334" x="1523.18" y="544"/><ellipse cx="1640.43" cy="560" fill="#ADD1B2" rx="11" ry="11" style="stroke: #A80036; stroke-width: 1.0;"/><path d="M1643.3988,565.6406 Q1642.8206,565.9375 1642.18,566.0781 Q1641.5394,566.2344 1640.8363,566.2344 Q1638.3363,566.2344 1637.0081,564.5938 Q1635.6956,562.9375 1635.6956,559.8125 Q1635.6956,556.6875 1637.0081,555.0313 Q1638.3363,553.375 1640.8363,553.375 Q1641.5394,553.375 1642.18,553.5313 Q1642.8363,553.6875 1643.3988,553.9844 L1643.3988,556.7031 Q1642.7738,556.125 1642.18,555.8594 Q1641.5863,555.5781 1640.9613,555.5781 Q1639.6175,555.5781 1638.93,556.6563 Q1638.2425,557.7188 1638.2425,559.8125 Q1638.2425,561.9063 1638.93,562.9844 Q1639.6175,564.0469 1640.9613,564.0469 Q1641.5863,564.0469 1642.18,563.7813 Q1642.7738,563.5 1643.3988,562.9219 L1643.3988,565.6406 Z "/><text fill="#000000" font-family="sans-serif" font-size="12" lengthAdjust="spacingAndGlyphs" textLength="91" x="1660.93" y="564.1543">LongConverter</text><line style="stroke: #A80036; stroke-width: 1.5;" x1="1524.18" x2="1856.18" y1="576" y2="576"/><line style="stroke: #A80036; stroke-width: 1.5;" x1="1524.18" x2="1856.18" y1="584" y2="584"/><ellipse cx="1534.18" cy="595" fill="#84BE84" rx="3" ry="3" style="stroke: #038048; stroke-width: 1.0;"/><text fill="#000000" font-family="sans-serif" font-size="11" lengthAdjust="spacingAndGlyphs" textLength="279" x="1543.18" y="598.2104">ConvertToStatic(jsValue: napi_value): EtsObject *</text><ellipse cx="1534.18" cy="607.8047" fill="#84BE84" rx="3" ry="3" style="stroke: #038048; stroke-width: 1.0;"/><text fill="#000000" font-family="sans-serif" font-size="11" lengthAdjust="spacingAndGlyphs" textLength="308" x="1543.18" y="611.0151">ConvertToDynamic(etsObject: EtsObject *): napi_value</text><text fill="#000000" font-family="sans-serif" font-size="11" lengthAdjust="spacingAndGlyphs" textLength="0" x="1547.18" y="623.8198"/><ellipse cx="1534.18" cy="633.4141" fill="#84BE84" rx="3" ry="3" style="stroke: #038048; stroke-width: 1.0;"/><text fill="#000000" font-family="sans-serif" font-size="11" lengthAdjust="spacingAndGlyphs" textLength="262" x="1543.18" y="636.6245">ConvertToStatic(jsValue: napi_value): Numeric</text><ellipse cx="1534.18" cy="646.2188" fill="#84BE84" rx="3" ry="3" style="stroke: #038048; stroke-width: 1.0;"/><text fill="#000000" font-family="sans-serif" font-size="11" lengthAdjust="spacingAndGlyphs" textLength="283" x="1543.18" y="649.4292">ConvertToDynamic(numeric: Numeric): napi_value</text><!--MD5=[ba76442fb5dfc35da0422f297e77a0dd]
class FloatConverter--><rect fill="#FEFECE" filter="url(#f16jxtmw12af9f)" height="112.0234" id="FloatConverter" style="stroke: #A80036; stroke-width: 1.5;" width="334" x="1892.18" y="544"/><ellipse cx="2008.93" cy="560" fill="#ADD1B2" rx="11" ry="11" style="stroke: #A80036; stroke-width: 1.0;"/><path d="M2011.8988,565.6406 Q2011.3206,565.9375 2010.68,566.0781 Q2010.0394,566.2344 2009.3363,566.2344 Q2006.8363,566.2344 2005.5081,564.5938 Q2004.1956,562.9375 2004.1956,559.8125 Q2004.1956,556.6875 2005.5081,555.0313 Q2006.8363,553.375 2009.3363,553.375 Q2010.0394,553.375 2010.68,553.5313 Q2011.3363,553.6875 2011.8988,553.9844 L2011.8988,556.7031 Q2011.2738,556.125 2010.68,555.8594 Q2010.0863,555.5781 2009.4613,555.5781 Q2008.1175,555.5781 2007.43,556.6563 Q2006.7425,557.7188 2006.7425,559.8125 Q2006.7425,561.9063 2007.43,562.9844 Q2008.1175,564.0469 2009.4613,564.0469 Q2010.0863,564.0469 2010.68,563.7813 Q2011.2738,563.5 2011.8988,562.9219 L2011.8988,565.6406 Z "/><text fill="#000000" font-family="sans-serif" font-size="12" lengthAdjust="spacingAndGlyphs" textLength="92" x="2029.43" y="564.1543">FloatConverter</text><line style="stroke: #A80036; stroke-width: 1.5;" x1="1893.18" x2="2225.18" y1="576" y2="576"/><line style="stroke: #A80036; stroke-width: 1.5;" x1="1893.18" x2="2225.18" y1="584" y2="584"/><ellipse cx="1903.18" cy="595" fill="#84BE84" rx="3" ry="3" style="stroke: #038048; stroke-width: 1.0;"/><text fill="#000000" font-family="sans-serif" font-size="11" lengthAdjust="spacingAndGlyphs" textLength="279" x="1912.18" y="598.2104">ConvertToStatic(jsValue: napi_value): EtsObject *</text><ellipse cx="1903.18" cy="607.8047" fill="#84BE84" rx="3" ry="3" style="stroke: #038048; stroke-width: 1.0;"/><text fill="#000000" font-family="sans-serif" font-size="11" lengthAdjust="spacingAndGlyphs" textLength="308" x="1912.18" y="611.0151">ConvertToDynamic(etsObject: EtsObject *): napi_value</text><text fill="#000000" font-family="sans-serif" font-size="11" lengthAdjust="spacingAndGlyphs" textLength="0" x="1916.18" y="623.8198"/><ellipse cx="1903.18" cy="633.4141" fill="#84BE84" rx="3" ry="3" style="stroke: #038048; stroke-width: 1.0;"/><text fill="#000000" font-family="sans-serif" font-size="11" lengthAdjust="spacingAndGlyphs" textLength="262" x="1912.18" y="636.6245">ConvertToStatic(jsValue: napi_value): Numeric</text><ellipse cx="1903.18" cy="646.2188" fill="#84BE84" rx="3" ry="3" style="stroke: #038048; stroke-width: 1.0;"/><text fill="#000000" font-family="sans-serif" font-size="11" lengthAdjust="spacingAndGlyphs" textLength="283" x="1912.18" y="649.4292">ConvertToDynamic(numeric: Numeric): napi_value</text><!--MD5=[3bd4b3ba27e7a1e0605455b6d48fb281]
class DoubleConverter--><rect fill="#FEFECE" filter="url(#f16jxtmw12af9f)" height="112.0234" id="DoubleConverter" style="stroke: #A80036; stroke-width: 1.5;" width="334" x="2261.18" y="544"/><ellipse cx="2371.43" cy="560" fill="#ADD1B2" rx="11" ry="11" style="stroke: #A80036; stroke-width: 1.0;"/><path d="M2374.3988,565.6406 Q2373.8206,565.9375 2373.18,566.0781 Q2372.5394,566.2344 2371.8363,566.2344 Q2369.3363,566.2344 2368.0081,564.5938 Q2366.6956,562.9375 2366.6956,559.8125 Q2366.6956,556.6875 2368.0081,555.0313 Q2369.3363,553.375 2371.8363,553.375 Q2372.5394,553.375 2373.18,553.5313 Q2373.8363,553.6875 2374.3988,553.9844 L2374.3988,556.7031 Q2373.7738,556.125 2373.18,555.8594 Q2372.5863,555.5781 2371.9613,555.5781 Q2370.6175,555.5781 2369.93,556.6563 Q2369.2425,557.7188 2369.2425,559.8125 Q2369.2425,561.9063 2369.93,562.9844 Q2370.6175,564.0469 2371.9613,564.0469 Q2372.5863,564.0469 2373.18,563.7813 Q2373.7738,563.5 2374.3988,562.9219 L2374.3988,565.6406 Z "/><text fill="#000000" font-family="sans-serif" font-size="12" lengthAdjust="spacingAndGlyphs" textLength="105" x="2391.93" y="564.1543">DoubleConverter</text><line style="stroke: #A80036; stroke-width: 1.5;" x1="2262.18" x2="2594.18" y1="576" y2="576"/><line style="stroke: #A80036; stroke-width: 1.5;" x1="2262.18" x2="2594.18" y1="584" y2="584"/><ellipse cx="2272.18" cy="595" fill="#84BE84" rx="3" ry="3" style="stroke: #038048; stroke-width: 1.0;"/><text fill="#000000" font-family="sans-serif" font-size="11" lengthAdjust="spacingAndGlyphs" textLength="279" x="2281.18" y="598.2104">ConvertToStatic(jsValue: napi_value): EtsObject *</text><ellipse cx="2272.18" cy="607.8047" fill="#84BE84" rx="3" ry="3" style="stroke: #038048; stroke-width: 1.0;"/><text fill="#000000" font-family="sans-serif" font-size="11" lengthAdjust="spacingAndGlyphs" textLength="308" x="2281.18" y="611.0151">ConvertToDynamic(etsObject: EtsObject *): napi_value</text><text fill="#000000" font-family="sans-serif" font-size="11" lengthAdjust="spacingAndGlyphs" textLength="0" x="2285.18" y="623.8198"/><ellipse cx="2272.18" cy="633.4141" fill="#84BE84" rx="3" ry="3" style="stroke: #038048; stroke-width: 1.0;"/><text fill="#000000" font-family="sans-serif" font-size="11" lengthAdjust="spacingAndGlyphs" textLength="262" x="2281.18" y="636.6245">ConvertToStatic(jsValue: napi_value): Numeric</text><ellipse cx="2272.18" cy="646.2188" fill="#84BE84" rx="3" ry="3" style="stroke: #038048; stroke-width: 1.0;"/><text fill="#000000" font-family="sans-serif" font-size="11" lengthAdjust="spacingAndGlyphs" textLength="283" x="2281.18" y="649.4292">ConvertToDynamic(numeric: Numeric): napi_value</text><!--MD5=[ba073b66973f43d8829c343bee2ec4ff]
class StringConverter--><rect fill="#FEFECE" filter="url(#f16jxtmw12af9f)" height="73.6094" id="StringConverter" style="stroke: #A80036; stroke-width: 1.5;" width="334" x="1729.18" y="297"/><ellipse cx="1842.93" cy="313" fill="#ADD1B2" rx="11" ry="11" style="stroke: #A80036; stroke-width: 1.0;"/><path d="M1845.8988,318.6406 Q1845.3206,318.9375 1844.68,319.0781 Q1844.0394,319.2344 1843.3363,319.2344 Q1840.8363,319.2344 1839.5081,317.5938 Q1838.1956,315.9375 1838.1956,312.8125 Q1838.1956,309.6875 1839.5081,308.0313 Q1840.8363,306.375 1843.3363,306.375 Q1844.0394,306.375 1844.68,306.5313 Q1845.3363,306.6875 1845.8988,306.9844 L1845.8988,309.7031 Q1845.2738,309.125 1844.68,308.8594 Q1844.0863,308.5781 1843.4613,308.5781 Q1842.1175,308.5781 1841.43,309.6563 Q1840.7425,310.7188 1840.7425,312.8125 Q1840.7425,314.9063 1841.43,315.9844 Q1842.1175,317.0469 1843.4613,317.0469 Q1844.0863,317.0469 1844.68,316.7813 Q1845.2738,316.5 1845.8988,315.9219 L1845.8988,318.6406 Z "/><text fill="#000000" font-family="sans-serif" font-size="12" lengthAdjust="spacingAndGlyphs" textLength="98" x="1863.43" y="317.1543">StringConverter</text><line style="stroke: #A80036; stroke-width: 1.5;" x1="1730.18" x2="2062.18" y1="329" y2="329"/><line style="stroke: #A80036; stroke-width: 1.5;" x1="1730.18" x2="2062.18" y1="337" y2="337"/><ellipse cx="1740.18" cy="348" fill="#84BE84" rx="3" ry="3" style="stroke: #038048; stroke-width: 1.0;"/><text fill="#000000" font-family="sans-serif" font-size="11" lengthAdjust="spacingAndGlyphs" textLength="275" x="1749.18" y="351.2104">ConvertToStatic(napi_value jsValue): EtsObject *</text><ellipse cx="1740.18" cy="360.8047" fill="#84BE84" rx="3" ry="3" style="stroke: #038048; stroke-width: 1.0;"/><text fill="#000000" font-family="sans-serif" font-size="11" lengthAdjust="spacingAndGlyphs" textLength="308" x="1749.18" y="364.0151">ConvertToDynamic(etsObject: EtsObject *): napi_value</text><!--MD5=[95b08d3a0a59ec4e3c211ba9ae08d79c]
reverse link Numeric to NumericType--><path d="M153.69,744.25 C139.23,767.13 124.88,789.84 112.22,809.87 " fill="none" id="Numeric&lt;-NumericType" style="stroke: #A80036; stroke-width: 1.0;"/><polygon fill="#A80036" points="160.78,733.01,154.1949,735.9489,154.3751,743.1577,160.9601,740.2189,160.78,733.01" style="stroke: #A80036; stroke-width: 1.0;"/><text fill="#000000" font-family="sans-serif" font-size="13" lengthAdjust="spacingAndGlyphs" textLength="23" x="142.18" y="776.0669">has</text><!--MD5=[59c40185fe9480f9f524f424dd534bca]
reverse link ConverterBase to NullTypeConverter--><path d="M1207.98,88.96 C1159.63,106.39 1104.4,126.3 1058.19,142.96 " fill="none" id="ConverterBase&lt;-NullTypeConverter" style="stroke: #A80036; stroke-width: 1.0; stroke-dasharray: 7.0,7.0;"/><polygon fill="none" points="1205.65,82.36,1226.84,82.17,1210.4,95.53,1205.65,82.36" style="stroke: #A80036; stroke-width: 1.0;"/><!--MD5=[b42196e27eb530d8682194ce935ed0aa]
reverse link ConverterBase to UndefinedConverter--><path d="M1327.18,102.81 C1327.18,116.32 1327.18,130.39 1327.18,142.7 " fill="none" id="ConverterBase&lt;-UndefinedConverter" style="stroke: #A80036; stroke-width: 1.0; stroke-dasharray: 7.0,7.0;"/><polygon fill="none" points="1320.18,102.34,1327.18,82.34,1334.18,102.34,1320.18,102.34" style="stroke: #A80036; stroke-width: 1.0;"/><!--MD5=[7ea3d533facd5b8efef3759b61144889]
reverse link ConverterBase to PrimitiveConverter--><path d="M1446.38,88.96 C1494.74,106.39 1549.97,126.3 1596.18,142.96 " fill="none" id="ConverterBase&lt;-PrimitiveConverter" style="stroke: #A80036; stroke-width: 1.0; stroke-dasharray: 7.0,7.0;"/><polygon fill="none" points="1443.97,95.53,1427.53,82.17,1448.72,82.36,1443.97,95.53" style="stroke: #A80036; stroke-width: 1.0;"/><!--MD5=[2c2396e00a669d957582b54694020710]
reverse link PrimitiveConverter to NumericConverter--><path d="M1538.19,222.24 C1473.63,239.25 1398.26,259.33 1330.18,278 C1324.61,279.53 1318.95,281.09 1313.24,282.67 " fill="none" id="PrimitiveConverter&lt;-NumericConverter" style="stroke: #A80036; stroke-width: 1.0;"/><polygon fill="none" points="1536.74,215.38,1557.86,217.06,1540.3,228.92,1536.74,215.38" style="stroke: #A80036; stroke-width: 1.0;"/><!--MD5=[b923e112ce09b9bf9840f2e1bee3c43d]
link NumericConverter to Numeric--><path d="M959.02,340.63 C804.34,351.49 577.24,382.09 398.18,467 C394.18,468.9 390.2,470.93 386.25,473.07 " fill="none" id="NumericConverter-&gt;Numeric" style="stroke: #A80036; stroke-width: 1.0; stroke-dasharray: 7.0,7.0;"/><polygon fill="#A80036" points="381.62,475.64,391.43,474.7658,385.9908,473.2118,387.5448,467.7726,381.62,475.64" style="stroke: #A80036; stroke-width: 1.0;"/><text fill="#000000" font-family="sans-serif" font-size="13" lengthAdjust="spacingAndGlyphs" textLength="30" x="513.18" y="433.0669">uses</text><!--MD5=[1b7075bdca67b85fbb22d049829e0533]
link NumericConverter to NumericType--><path d="M958.94,344.03 C668.12,360.69 115.86,400.71 57.18,467 C-24.51,559.29 9.45,714.05 40.22,805.03 " fill="none" id="NumericConverter-&gt;NumericType" style="stroke: #A80036; stroke-width: 1.0; stroke-dasharray: 7.0,7.0;"/><polygon fill="#A80036" points="41.87,809.85,42.7478,800.0403,40.2546,805.1181,35.1768,802.625,41.87,809.85" style="stroke: #A80036; stroke-width: 1.0;"/><text fill="#000000" font-family="sans-serif" font-size="13" lengthAdjust="spacingAndGlyphs" textLength="30" x="58.18" y="604.5669">uses</text><!--MD5=[4a6d6196825908f61e15c8d0d2d9f990]
reverse link NumericConverter to BooleanConverter--><path d="M939.62,393.91 C882.6,414.02 821.19,438.69 767.18,467 C726.27,488.45 684.15,518.02 650.55,543.73 " fill="none" id="NumericConverter&lt;-BooleanConverter" style="stroke: #A80036; stroke-width: 1.0;"/><polygon fill="none" points="937.58,387.21,958.77,387.27,942.17,400.44,937.58,387.21" style="stroke: #A80036; stroke-width: 1.0;"/><!--MD5=[b553f2924470f757b0b1cc9fe6fe5369]
reverse link NumericConverter to ByteConverter--><path d="M1086.31,406.55 C1056.27,449.66 1018.57,503.75 990.8,543.6 " fill="none" id="NumericConverter&lt;-ByteConverter" style="stroke: #A80036; stroke-width: 1.0;"/><polygon fill="none" points="1080.66,402.43,1097.84,390.02,1092.14,410.43,1080.66,402.43" style="stroke: #A80036; stroke-width: 1.0;"/><!--MD5=[6bee1e48685690aed60e32626f2b5439]
reverse link NumericConverter to ShortConverter--><path d="M1186.32,406.55 C1216.53,449.66 1254.44,503.75 1282.36,543.6 " fill="none" id="NumericConverter&lt;-ShortConverter" style="stroke: #A80036; stroke-width: 1.0;"/><polygon fill="none" points="1180.49,410.42,1174.74,390.02,1191.95,402.38,1180.49,410.42" style="stroke: #A80036; stroke-width: 1.0;"/><!--MD5=[4170c3067459f299c7cbb47031c5dc62]
reverse link NumericConverter to LongConverter--><path d="M1332.7,394 C1389.72,414.11 1451.15,438.75 1505.18,467 C1546.27,488.48 1588.61,518.05 1622.4,543.75 " fill="none" id="NumericConverter&lt;-LongConverter" style="stroke: #A80036; stroke-width: 1.0;"/><polygon fill="none" points="1330.15,400.53,1313.55,387.36,1334.74,387.3,1330.15,400.53" style="stroke: #A80036; stroke-width: 1.0;"/><!--MD5=[c02718f8f751b7a039feca02fb7224b2]
reverse link NumericConverter to FloatConverter--><path d="M1333.2,390.32 C1573.77,437.29 1654.11,378.36 1875.18,467 C1920.07,485 1964.3,516.17 1998.14,543.71 " fill="none" id="NumericConverter&lt;-FloatConverter" style="stroke: #A80036; stroke-width: 1.0;"/><polygon fill="none" points="1331.49,397.12,1313.29,386.27,1334.29,383.4,1331.49,397.12" style="stroke: #A80036; stroke-width: 1.0;"/><!--MD5=[71639baf096c28862885340bf4fb485e]
reverse link NumericConverter to DoubleConverter--><path d="M1333.21,390.17 C1736.1,455.51 1868.88,325.49 2244.18,467 C2289.98,484.27 2334.75,515.96 2368.66,543.96 " fill="none" id="NumericConverter&lt;-DoubleConverter" style="stroke: #A80036; stroke-width: 1.0;"/><polygon fill="none" points="1331.75,397.02,1313.19,386.8,1334.08,383.22,1331.75,397.02" style="stroke: #A80036; stroke-width: 1.0;"/><!--MD5=[b54376ea2eb48a7f0a08a8b72a5b6a7a]
reverse link PrimitiveConverter to StringConverter--><path d="M1759.52,229.14 C1788.44,251.11 1822.1,276.7 1848.78,296.97 " fill="none" id="PrimitiveConverter&lt;-StringConverter" style="stroke: #A80036; stroke-width: 1.0;"/><polygon fill="none" points="1755.27,234.7,1743.58,217.02,1763.74,223.55,1755.27,234.7" style="stroke: #A80036; stroke-width: 1.0;"/><!--MD5=[fd12fbf91d8a72cca9402bef4290d601]
@startuml converter

enum NumericType {
    Boolean
    Byte
    Short
    Int
    Long
    Float
    Double
}

class Numeric {
    - value: U64
    - type: NumericType

    + **static** FromBoolean(value: bool): Numeric
    + **static** FromByte(value: uint8): Numeric
    + **static** FromShort(value: uint16): Numeric
    + **static** FromInt(value: int32): Numeric
    + **static** FromLong(value: int64): Numeric
    + **static** FromFloat(value: float32): Numeric
    + **static** FromDouble(value: float64): Numeric
    + ToBoolean(): bool
    + ToByte(): uint8
    + ToShort(): uint16
    + ToInt(): int32
    + ToLong(): int64
    + ToFloat(): float32
    + ToDouble(): float64
    + GetType(): NumericType
}

Numeric *- - NumericType : has


interface ConverterBase {
    + ConvertToStatic(jsValue: napi_value): EtsObject *
    + ConvertToDynamic(etsObject: EtsObject *): napi_value
}



class NullTypeConverter implements ConverterBase {
    + ConvertToStatic(jsValue: napi_value): EtsObject *
    + ConvertToDynamic(etsObject: EtsObject *): napi_value
}

class UndefinedConverter implements ConverterBase {
    + ConvertToStatic(jsValue: napi_value): EtsObject *
    + ConvertToDynamic(etsObject: EtsObject *): napi_value
}

class PrimitiveConverter implements ConverterBase {
    + ConvertToStatic(jsValue: napi_value): EtsObject *
    + ConvertToDynamic(etsObject: EtsObject *): napi_value
}

class NumericConverter extends PrimitiveConverter {
    + ConvertToStatic(jsValue: napi_value): EtsObject *
    + ConvertToDynamic(etsObject: EtsObject *): napi_value

    + **virtual** ConvertToStatic(jsValue: napi_value): Numeric
    + **virtual** ConvertToDynamic(numeric: Numeric): napi_value
}

note right of NumericConverter
  后两个方法是虚方法, 需要在子类中实现. 子类会坚持传入Numeric是否是自己的类型
end note


NumericConverter ..> Numeric : uses
NumericConverter ..> NumericType : uses

class BooleanConverter extends NumericConverter {
    + ConvertToStatic(jsValue: napi_value): EtsObject *
    + ConvertToDynamic(etsObject: EtsObject *): napi_value

    + ConvertToStatic(jsValue: napi_value): Numeric
    + ConvertToDynamic(numeric: Numeric): napi_value
}

class ByteConverter extends NumericConverter {
    + ConvertToStatic(jsValue: napi_value): EtsObject *
    + ConvertToDynamic(etsObject: EtsObject *): napi_value

    + ConvertToStatic(jsValue: napi_value): Numeric
    + ConvertToDynamic(numeric: Numeric): napi_value
}

class ShortConverter extends NumericConverter {
    + ConvertToStatic(jsValue: napi_value): EtsObject *
    + ConvertToDynamic(etsObject: EtsObject *): napi_value

    + ConvertToStatic(jsValue: napi_value): Numeric
    + ConvertToDynamic(numeric: Numeric): napi_value
}

class LongConverter extends NumericConverter {
    + ConvertToStatic(jsValue: napi_value): EtsObject *
    + ConvertToDynamic(etsObject: EtsObject *): napi_value

    + ConvertToStatic(jsValue: napi_value): Numeric
    + ConvertToDynamic(numeric: Numeric): napi_value
}

class FloatConverter extends NumericConverter {
    + ConvertToStatic(jsValue: napi_value): EtsObject *
    + ConvertToDynamic(etsObject: EtsObject *): napi_value

    + ConvertToStatic(jsValue: napi_value): Numeric
    + ConvertToDynamic(numeric: Numeric): napi_value
}

class DoubleConverter extends NumericConverter {
    + ConvertToStatic(jsValue: napi_value): EtsObject *
    + ConvertToDynamic(etsObject: EtsObject *): napi_value

    + ConvertToStatic(jsValue: napi_value): Numeric
    + ConvertToDynamic(numeric: Numeric): napi_value
}

class StringConverter extends PrimitiveConverter {
    + ConvertToStatic(napi_value jsValue): EtsObject *
    + ConvertToDynamic(etsObject: EtsObject *): napi_value
}




@enduml

PlantUML version 1.2020.02(Sun Mar 01 10:22:07 UTC 2020)
(GPL source distribution)
Java Runtime: OpenJDK Runtime Environment
JVM: OpenJDK 64-Bit Server VM
Java Version: 17.0.16+8
Operating System: Linux
Default Encoding: UTF-8
Language: en
Country: null
--></g></svg>