<?xml version="1.0" encoding="UTF-8" standalone="no"?><svg xmlns="http://www.w3.org/2000/svg" xmlns:xlink="http://www.w3.org/1999/xlink" contentScriptType="application/ecmascript" contentStyleType="text/css" height="579px" preserveAspectRatio="none" style="width:3294px;height:579px;" version="1.1" viewBox="0 0 3294 579" width="3294px" zoomAndPan="magnify"><defs><filter height="300%" id="f117htfigbgys6" width="300%" x="-1" y="-1"><feGaussianBlur result="blurOut" stdDeviation="2.0"/><feColorMatrix in="blurOut" result="blurOut2" type="matrix" values="0 0 0 0 0 0 0 0 0 0 0 0 0 0 0 0 0 0 .4 0"/><feOffset dx="4.0" dy="4.0" in="blurOut2" result="blurOut3"/><feBlend in="SourceGraphic" in2="blurOut3" mode="normal"/></filter></defs><g><!--MD5=[5727b1e8a4666b2981d4052700e90255]
class StaticConverterBase--><rect fill="#FEFECE" filter="url(#f117htfigbgys6)" height="60.8047" id="StaticConverterBase" style="stroke: #A80036; stroke-width: 1.5;" width="305" x="1026" y="8"/><ellipse cx="1110.75" cy="24" fill="#B4A7E5" rx="11" ry="11" style="stroke: #A80036; stroke-width: 1.0;"/><path d="M1106.6719,19.7656 L1106.6719,17.6094 L1114.0625,17.6094 L1114.0625,19.7656 L1111.5938,19.7656 L1111.5938,27.8438 L1114.0625,27.8438 L1114.0625,30 L1106.6719,30 L1106.6719,27.8438 L1109.1406,27.8438 L1109.1406,19.7656 L1106.6719,19.7656 Z "/><text fill="#000000" font-family="sans-serif" font-size="12" font-style="italic" lengthAdjust="spacingAndGlyphs" textLength="127" x="1131.25" y="28.1543">StaticConverterBase</text><line style="stroke: #A80036; stroke-width: 1.5;" x1="1027" x2="1330" y1="40" y2="40"/><line style="stroke: #A80036; stroke-width: 1.5;" x1="1027" x2="1330" y1="48" y2="48"/><ellipse cx="1037" cy="59" fill="#84BE84" rx="3" ry="3" style="stroke: #038048; stroke-width: 1.0;"/><text fill="#000000" font-family="sans-serif" font-size="11" lengthAdjust="spacingAndGlyphs" textLength="279" x="1046" y="62.2104">ConvertToStatic(jsValue: napi_value): EtsObject *</text><!--MD5=[e5e1ea9464a447279c311f352aa134d1]
class UnimplementedStaticConverter--><rect fill="#FEFECE" filter="url(#f117htfigbgys6)" height="60.8047" id="UnimplementedStaticConverter" style="stroke: #A80036; stroke-width: 1.5;" width="305" x="686" y="129"/><ellipse cx="736.75" cy="145" fill="#ADD1B2" rx="11" ry="11" style="stroke: #A80036; stroke-width: 1.0;"/><path d="M739.7188,150.6406 Q739.1406,150.9375 738.5,151.0781 Q737.8594,151.2344 737.1563,151.2344 Q734.6563,151.2344 733.3281,149.5938 Q732.0156,147.9375 732.0156,144.8125 Q732.0156,141.6875 733.3281,140.0313 Q734.6563,138.375 737.1563,138.375 Q737.8594,138.375 738.5,138.5313 Q739.1563,138.6875 739.7188,138.9844 L739.7188,141.7031 Q739.0938,141.125 738.5,140.8594 Q737.9063,140.5781 737.2813,140.5781 Q735.9375,140.5781 735.25,141.6563 Q734.5625,142.7188 734.5625,144.8125 Q734.5625,146.9063 735.25,147.9844 Q735.9375,149.0469 737.2813,149.0469 Q737.9063,149.0469 738.5,148.7813 Q739.0938,148.5 739.7188,147.9219 L739.7188,150.6406 Z "/><text fill="#000000" font-family="sans-serif" font-size="12" lengthAdjust="spacingAndGlyphs" textLength="195" x="757.25" y="149.1543">UnimplementedStaticConverter</text><line style="stroke: #A80036; stroke-width: 1.5;" x1="687" x2="990" y1="161" y2="161"/><line style="stroke: #A80036; stroke-width: 1.5;" x1="687" x2="990" y1="169" y2="169"/><ellipse cx="697" cy="180" fill="#84BE84" rx="3" ry="3" style="stroke: #038048; stroke-width: 1.0;"/><text fill="#000000" font-family="sans-serif" font-size="11" lengthAdjust="spacingAndGlyphs" textLength="279" x="706" y="183.2104">ConvertToStatic(jsValue: napi_value): EtsObject *</text><!--MD5=[4f0232ab3d9a32de59e9daf81bf73060]
class PrimitiveStaticConverter--><rect fill="#FEFECE" filter="url(#f117htfigbgys6)" height="60.8047" id="PrimitiveStaticConverter" style="stroke: #A80036; stroke-width: 1.5;" width="305" x="1026" y="129"/><ellipse cx="1100.25" cy="145" fill="#B4A7E5" rx="11" ry="11" style="stroke: #A80036; stroke-width: 1.0;"/><path d="M1096.1719,140.7656 L1096.1719,138.6094 L1103.5625,138.6094 L1103.5625,140.7656 L1101.0938,140.7656 L1101.0938,148.8438 L1103.5625,148.8438 L1103.5625,151 L1096.1719,151 L1096.1719,148.8438 L1098.6406,148.8438 L1098.6406,140.7656 L1096.1719,140.7656 Z "/><text fill="#000000" font-family="sans-serif" font-size="12" font-style="italic" lengthAdjust="spacingAndGlyphs" textLength="148" x="1120.75" y="149.1543">PrimitiveStaticConverter</text><line style="stroke: #A80036; stroke-width: 1.5;" x1="1027" x2="1330" y1="161" y2="161"/><line style="stroke: #A80036; stroke-width: 1.5;" x1="1027" x2="1330" y1="169" y2="169"/><ellipse cx="1037" cy="180" fill="#84BE84" rx="3" ry="3" style="stroke: #038048; stroke-width: 1.0;"/><text fill="#000000" font-family="sans-serif" font-size="11" lengthAdjust="spacingAndGlyphs" textLength="279" x="1046" y="183.2104">ConvertToStatic(jsValue: napi_value): EtsObject *</text><!--MD5=[9c4fb54e64e0579a5322160346be2a30]
class UndefinedStaticConverter--><rect fill="#FEFECE" filter="url(#f117htfigbgys6)" height="60.8047" id="UndefinedStaticConverter" style="stroke: #A80036; stroke-width: 1.5;" width="305" x="6" y="262.5"/><ellipse cx="73.75" cy="278.5" fill="#ADD1B2" rx="11" ry="11" style="stroke: #A80036; stroke-width: 1.0;"/><path d="M76.7188,284.1406 Q76.1406,284.4375 75.5,284.5781 Q74.8594,284.7344 74.1563,284.7344 Q71.6563,284.7344 70.3281,283.0938 Q69.0156,281.4375 69.0156,278.3125 Q69.0156,275.1875 70.3281,273.5313 Q71.6563,271.875 74.1563,271.875 Q74.8594,271.875 75.5,272.0313 Q76.1563,272.1875 76.7188,272.4844 L76.7188,275.2031 Q76.0938,274.625 75.5,274.3594 Q74.9063,274.0781 74.2813,274.0781 Q72.9375,274.0781 72.25,275.1563 Q71.5625,276.2188 71.5625,278.3125 Q71.5625,280.4063 72.25,281.4844 Q72.9375,282.5469 74.2813,282.5469 Q74.9063,282.5469 75.5,282.2813 Q76.0938,282 76.7188,281.4219 L76.7188,284.1406 Z "/><text fill="#000000" font-family="sans-serif" font-size="12" lengthAdjust="spacingAndGlyphs" textLength="161" x="94.25" y="282.6543">UndefinedStaticConverter</text><line style="stroke: #A80036; stroke-width: 1.5;" x1="7" x2="310" y1="294.5" y2="294.5"/><line style="stroke: #A80036; stroke-width: 1.5;" x1="7" x2="310" y1="302.5" y2="302.5"/><ellipse cx="17" cy="313.5" fill="#84BE84" rx="3" ry="3" style="stroke: #038048; stroke-width: 1.0;"/><text fill="#000000" font-family="sans-serif" font-size="11" lengthAdjust="spacingAndGlyphs" textLength="279" x="26" y="316.7104">ConvertToStatic(jsValue: napi_value): EtsObject *</text><!--MD5=[5a0b0f6ae7fbe1722ad2b9aff1f5f982]
class NullStaticConverter--><rect fill="#FEFECE" filter="url(#f117htfigbgys6)" height="60.8047" id="NullStaticConverter" style="stroke: #A80036; stroke-width: 1.5;" width="305" x="346" y="262.5"/><ellipse cx="434.25" cy="278.5" fill="#ADD1B2" rx="11" ry="11" style="stroke: #A80036; stroke-width: 1.0;"/><path d="M437.2188,284.1406 Q436.6406,284.4375 436,284.5781 Q435.3594,284.7344 434.6563,284.7344 Q432.1563,284.7344 430.8281,283.0938 Q429.5156,281.4375 429.5156,278.3125 Q429.5156,275.1875 430.8281,273.5313 Q432.1563,271.875 434.6563,271.875 Q435.3594,271.875 436,272.0313 Q436.6563,272.1875 437.2188,272.4844 L437.2188,275.2031 Q436.5938,274.625 436,274.3594 Q435.4063,274.0781 434.7813,274.0781 Q433.4375,274.0781 432.75,275.1563 Q432.0625,276.2188 432.0625,278.3125 Q432.0625,280.4063 432.75,281.4844 Q433.4375,282.5469 434.7813,282.5469 Q435.4063,282.5469 436,282.2813 Q436.5938,282 437.2188,281.4219 L437.2188,284.1406 Z "/><text fill="#000000" font-family="sans-serif" font-size="12" lengthAdjust="spacingAndGlyphs" textLength="120" x="454.75" y="282.6543">NullStaticConverter</text><line style="stroke: #A80036; stroke-width: 1.5;" x1="347" x2="650" y1="294.5" y2="294.5"/><line style="stroke: #A80036; stroke-width: 1.5;" x1="347" x2="650" y1="302.5" y2="302.5"/><ellipse cx="357" cy="313.5" fill="#84BE84" rx="3" ry="3" style="stroke: #038048; stroke-width: 1.0;"/><text fill="#000000" font-family="sans-serif" font-size="11" lengthAdjust="spacingAndGlyphs" textLength="279" x="366" y="316.7104">ConvertToStatic(jsValue: napi_value): EtsObject *</text><!--MD5=[17de85bca73f352475c791a87f967be7]
class BooleanStaticConverter--><rect fill="#FEFECE" filter="url(#f117htfigbgys6)" height="60.8047" id="BooleanStaticConverter" style="stroke: #A80036; stroke-width: 1.5;" width="305" x="686" y="262.5"/><ellipse cx="760.25" cy="278.5" fill="#ADD1B2" rx="11" ry="11" style="stroke: #A80036; stroke-width: 1.0;"/><path d="M763.2188,284.1406 Q762.6406,284.4375 762,284.5781 Q761.3594,284.7344 760.6563,284.7344 Q758.1563,284.7344 756.8281,283.0938 Q755.5156,281.4375 755.5156,278.3125 Q755.5156,275.1875 756.8281,273.5313 Q758.1563,271.875 760.6563,271.875 Q761.3594,271.875 762,272.0313 Q762.6563,272.1875 763.2188,272.4844 L763.2188,275.2031 Q762.5938,274.625 762,274.3594 Q761.4063,274.0781 760.7813,274.0781 Q759.4375,274.0781 758.75,275.1563 Q758.0625,276.2188 758.0625,278.3125 Q758.0625,280.4063 758.75,281.4844 Q759.4375,282.5469 760.7813,282.5469 Q761.4063,282.5469 762,282.2813 Q762.5938,282 763.2188,281.4219 L763.2188,284.1406 Z "/><text fill="#000000" font-family="sans-serif" font-size="12" lengthAdjust="spacingAndGlyphs" textLength="148" x="780.75" y="282.6543">BooleanStaticConverter</text><line style="stroke: #A80036; stroke-width: 1.5;" x1="687" x2="990" y1="294.5" y2="294.5"/><line style="stroke: #A80036; stroke-width: 1.5;" x1="687" x2="990" y1="302.5" y2="302.5"/><ellipse cx="697" cy="313.5" fill="#84BE84" rx="3" ry="3" style="stroke: #038048; stroke-width: 1.0;"/><text fill="#000000" font-family="sans-serif" font-size="11" lengthAdjust="spacingAndGlyphs" textLength="279" x="706" y="316.7104">ConvertToStatic(jsValue: napi_value): EtsObject *</text><!--MD5=[ae26bf89c4ccc0edbc5bdd09f13f6094]
class NumerStaticConverter--><rect fill="#FEFECE" filter="url(#f117htfigbgys6)" height="60.8047" id="NumerStaticConverter" style="stroke: #A80036; stroke-width: 1.5;" width="305" x="1026" y="262.5"/><ellipse cx="1105.25" cy="278.5" fill="#ADD1B2" rx="11" ry="11" style="stroke: #A80036; stroke-width: 1.0;"/><path d="M1108.2188,284.1406 Q1107.6406,284.4375 1107,284.5781 Q1106.3594,284.7344 1105.6563,284.7344 Q1103.1563,284.7344 1101.8281,283.0938 Q1100.5156,281.4375 1100.5156,278.3125 Q1100.5156,275.1875 1101.8281,273.5313 Q1103.1563,271.875 1105.6563,271.875 Q1106.3594,271.875 1107,272.0313 Q1107.6563,272.1875 1108.2188,272.4844 L1108.2188,275.2031 Q1107.5938,274.625 1107,274.3594 Q1106.4063,274.0781 1105.7813,274.0781 Q1104.4375,274.0781 1103.75,275.1563 Q1103.0625,276.2188 1103.0625,278.3125 Q1103.0625,280.4063 1103.75,281.4844 Q1104.4375,282.5469 1105.7813,282.5469 Q1106.4063,282.5469 1107,282.2813 Q1107.5938,282 1108.2188,281.4219 L1108.2188,284.1406 Z "/><text fill="#000000" font-family="sans-serif" font-size="12" lengthAdjust="spacingAndGlyphs" textLength="138" x="1125.75" y="282.6543">NumerStaticConverter</text><line style="stroke: #A80036; stroke-width: 1.5;" x1="1027" x2="1330" y1="294.5" y2="294.5"/><line style="stroke: #A80036; stroke-width: 1.5;" x1="1027" x2="1330" y1="302.5" y2="302.5"/><ellipse cx="1037" cy="313.5" fill="#84BE84" rx="3" ry="3" style="stroke: #038048; stroke-width: 1.0;"/><text fill="#000000" font-family="sans-serif" font-size="11" lengthAdjust="spacingAndGlyphs" textLength="279" x="1046" y="316.7104">ConvertToStatic(jsValue: napi_value): EtsObject *</text><!--MD5=[9ed4a14eb741ac79798aa54c221f1b5b]
class BigintStaticConverter--><rect fill="#FEFECE" filter="url(#f117htfigbgys6)" height="60.8047" id="BigintStaticConverter" style="stroke: #A80036; stroke-width: 1.5;" width="305" x="1366" y="262.5"/><ellipse cx="1448.25" cy="278.5" fill="#ADD1B2" rx="11" ry="11" style="stroke: #A80036; stroke-width: 1.0;"/><path d="M1451.2188,284.1406 Q1450.6406,284.4375 1450,284.5781 Q1449.3594,284.7344 1448.6563,284.7344 Q1446.1563,284.7344 1444.8281,283.0938 Q1443.5156,281.4375 1443.5156,278.3125 Q1443.5156,275.1875 1444.8281,273.5313 Q1446.1563,271.875 1448.6563,271.875 Q1449.3594,271.875 1450,272.0313 Q1450.6563,272.1875 1451.2188,272.4844 L1451.2188,275.2031 Q1450.5938,274.625 1450,274.3594 Q1449.4063,274.0781 1448.7813,274.0781 Q1447.4375,274.0781 1446.75,275.1563 Q1446.0625,276.2188 1446.0625,278.3125 Q1446.0625,280.4063 1446.75,281.4844 Q1447.4375,282.5469 1448.7813,282.5469 Q1449.4063,282.5469 1450,282.2813 Q1450.5938,282 1451.2188,281.4219 L1451.2188,284.1406 Z "/><text fill="#000000" font-family="sans-serif" font-size="12" lengthAdjust="spacingAndGlyphs" textLength="132" x="1468.75" y="282.6543">BigintStaticConverter</text><line style="stroke: #A80036; stroke-width: 1.5;" x1="1367" x2="1670" y1="294.5" y2="294.5"/><line style="stroke: #A80036; stroke-width: 1.5;" x1="1367" x2="1670" y1="302.5" y2="302.5"/><ellipse cx="1377" cy="313.5" fill="#84BE84" rx="3" ry="3" style="stroke: #038048; stroke-width: 1.0;"/><text fill="#000000" font-family="sans-serif" font-size="11" lengthAdjust="spacingAndGlyphs" textLength="279" x="1386" y="316.7104">ConvertToStatic(jsValue: napi_value): EtsObject *</text><!--MD5=[438359ac8016199995b7e42b1d8cbb99]
class StringStaticConverter--><rect fill="#FEFECE" filter="url(#f117htfigbgys6)" height="60.8047" id="StringStaticConverter" style="stroke: #A80036; stroke-width: 1.5;" width="305" x="1706" y="262.5"/><ellipse cx="1787.25" cy="278.5" fill="#ADD1B2" rx="11" ry="11" style="stroke: #A80036; stroke-width: 1.0;"/><path d="M1790.2188,284.1406 Q1789.6406,284.4375 1789,284.5781 Q1788.3594,284.7344 1787.6563,284.7344 Q1785.1563,284.7344 1783.8281,283.0938 Q1782.5156,281.4375 1782.5156,278.3125 Q1782.5156,275.1875 1783.8281,273.5313 Q1785.1563,271.875 1787.6563,271.875 Q1788.3594,271.875 1789,272.0313 Q1789.6563,272.1875 1790.2188,272.4844 L1790.2188,275.2031 Q1789.5938,274.625 1789,274.3594 Q1788.4063,274.0781 1787.7813,274.0781 Q1786.4375,274.0781 1785.75,275.1563 Q1785.0625,276.2188 1785.0625,278.3125 Q1785.0625,280.4063 1785.75,281.4844 Q1786.4375,282.5469 1787.7813,282.5469 Q1788.4063,282.5469 1789,282.2813 Q1789.5938,282 1790.2188,281.4219 L1790.2188,284.1406 Z "/><text fill="#000000" font-family="sans-serif" font-size="12" lengthAdjust="spacingAndGlyphs" textLength="134" x="1807.75" y="282.6543">StringStaticConverter</text><line style="stroke: #A80036; stroke-width: 1.5;" x1="1707" x2="2010" y1="294.5" y2="294.5"/><line style="stroke: #A80036; stroke-width: 1.5;" x1="1707" x2="2010" y1="302.5" y2="302.5"/><ellipse cx="1717" cy="313.5" fill="#84BE84" rx="3" ry="3" style="stroke: #038048; stroke-width: 1.0;"/><text fill="#000000" font-family="sans-serif" font-size="11" lengthAdjust="spacingAndGlyphs" textLength="279" x="1726" y="316.7104">ConvertToStatic(jsValue: napi_value): EtsObject *</text><!--MD5=[ee71b85b060bd81dc4cfaa25c941a3f8]
class ReferenceStaticConverter--><rect fill="#FEFECE" filter="url(#f117htfigbgys6)" height="60.8047" id="ReferenceStaticConverter" style="stroke: #A80036; stroke-width: 1.5;" width="305" x="2046" y="129"/><ellipse cx="2113.75" cy="145" fill="#B4A7E5" rx="11" ry="11" style="stroke: #A80036; stroke-width: 1.0;"/><path d="M2109.6719,140.7656 L2109.6719,138.6094 L2117.0625,138.6094 L2117.0625,140.7656 L2114.5938,140.7656 L2114.5938,148.8438 L2117.0625,148.8438 L2117.0625,151 L2109.6719,151 L2109.6719,148.8438 L2112.1406,148.8438 L2112.1406,140.7656 L2109.6719,140.7656 Z "/><text fill="#000000" font-family="sans-serif" font-size="12" font-style="italic" lengthAdjust="spacingAndGlyphs" textLength="161" x="2134.25" y="149.1543">ReferenceStaticConverter</text><line style="stroke: #A80036; stroke-width: 1.5;" x1="2047" x2="2350" y1="161" y2="161"/><line style="stroke: #A80036; stroke-width: 1.5;" x1="2047" x2="2350" y1="169" y2="169"/><ellipse cx="2057" cy="180" fill="#84BE84" rx="3" ry="3" style="stroke: #038048; stroke-width: 1.0;"/><text fill="#000000" font-family="sans-serif" font-size="11" lengthAdjust="spacingAndGlyphs" textLength="279" x="2066" y="183.2104">ConvertToStatic(jsValue: napi_value): EtsObject *</text><path d="M2038.5,26 L2038.5,51.1328 A0,0 0 0 0 2038.5,51.1328 L2194.5,51.1328 L2198.5,128.66 L2202.5,51.1328 L2358.5,51.1328 A0,0 0 0 0 2358.5,51.1328 L2358.5,36 L2348.5,26 L2038.5,26 A0,0 0 0 0 2038.5,26 " fill="#FBFB77" filter="url(#f117htfigbgys6)" style="stroke: #A80036; stroke-width: 1.0;"/><path d="M2348.5,26 L2348.5,36 L2358.5,36 L2348.5,26 " fill="#FBFB77" style="stroke: #A80036; stroke-width: 1.0;"/><text fill="#000000" font-family="sans-serif" font-size="13" lengthAdjust="spacingAndGlyphs" textLength="299" x="2044.5" y="43.0669">查找sharedReference的逻辑在这之前, 没查到才会进Converter</text><!--MD5=[eb656ca13e3ef6e484fd95628ec3ae25]
class ToJSValueStaticConverter--><rect fill="#FEFECE" filter="url(#f117htfigbgys6)" height="86.4141" id="ToJSValueStaticConverter" style="stroke: #A80036; stroke-width: 1.5;" width="305" x="2046" y="250"/><ellipse cx="2115.25" cy="266" fill="#ADD1B2" rx="11" ry="11" style="stroke: #A80036; stroke-width: 1.0;"/><path d="M2118.2188,271.6406 Q2117.6406,271.9375 2117,272.0781 Q2116.3594,272.2344 2115.6563,272.2344 Q2113.1563,272.2344 2111.8281,270.5938 Q2110.5156,268.9375 2110.5156,265.8125 Q2110.5156,262.6875 2111.8281,261.0313 Q2113.1563,259.375 2115.6563,259.375 Q2116.3594,259.375 2117,259.5313 Q2117.6563,259.6875 2118.2188,259.9844 L2118.2188,262.7031 Q2117.5938,262.125 2117,261.8594 Q2116.4063,261.5781 2115.7813,261.5781 Q2114.4375,261.5781 2113.75,262.6563 Q2113.0625,263.7188 2113.0625,265.8125 Q2113.0625,267.9063 2113.75,268.9844 Q2114.4375,270.0469 2115.7813,270.0469 Q2116.4063,270.0469 2117,269.7813 Q2117.5938,269.5 2118.2188,268.9219 L2118.2188,271.6406 Z "/><text fill="#000000" font-family="sans-serif" font-size="12" lengthAdjust="spacingAndGlyphs" textLength="158" x="2135.75" y="270.1543">ToJSValueStaticConverter</text><line style="stroke: #A80036; stroke-width: 1.5;" x1="2047" x2="2350" y1="282" y2="282"/><line style="stroke: #A80036; stroke-width: 1.5;" x1="2047" x2="2350" y1="290" y2="290"/><ellipse cx="2057" cy="301" fill="#84BE84" rx="3" ry="3" style="stroke: #038048; stroke-width: 1.0;"/><text fill="#000000" font-family="sans-serif" font-size="11" lengthAdjust="spacingAndGlyphs" textLength="242" x="2066" y="304.2104">GetDynamicProxiedClassCtor(): napi_value</text><ellipse cx="2057" cy="313.8047" fill="#84BE84" rx="3" ry="3" style="stroke: #038048; stroke-width: 1.0;"/><text fill="#000000" font-family="sans-serif" font-size="11" lengthAdjust="spacingAndGlyphs" textLength="200" x="2066" y="317.0151">GetStaticProxierClass(): EtsClass *</text><ellipse cx="2057" cy="326.6094" fill="#84BE84" rx="3" ry="3" style="stroke: #038048; stroke-width: 1.0;"/><text fill="#000000" font-family="sans-serif" font-size="11" lengthAdjust="spacingAndGlyphs" textLength="279" x="2066" y="329.8198">ConvertToStatic(jsValue: napi_value): EtsObject *</text><!--MD5=[1793b24dfc6ba57dab2e57173a274b6e]
class ProxiedStaticConverter--><rect fill="#FEFECE" filter="url(#f117htfigbgys6)" height="86.4141" id="ProxiedStaticConverter" style="stroke: #A80036; stroke-width: 1.5;" width="305" x="2386" y="250"/><ellipse cx="2462.75" cy="266" fill="#B4A7E5" rx="11" ry="11" style="stroke: #A80036; stroke-width: 1.0;"/><path d="M2458.6719,261.7656 L2458.6719,259.6094 L2466.0625,259.6094 L2466.0625,261.7656 L2463.5938,261.7656 L2463.5938,269.8438 L2466.0625,269.8438 L2466.0625,272 L2458.6719,272 L2458.6719,269.8438 L2461.1406,269.8438 L2461.1406,261.7656 L2458.6719,261.7656 Z "/><text fill="#000000" font-family="sans-serif" font-size="12" font-style="italic" lengthAdjust="spacingAndGlyphs" textLength="143" x="2483.25" y="270.1543">ProxiedStaticConverter</text><line style="stroke: #A80036; stroke-width: 1.5;" x1="2387" x2="2690" y1="282" y2="282"/><line style="stroke: #A80036; stroke-width: 1.5;" x1="2387" x2="2690" y1="290" y2="290"/><ellipse cx="2397" cy="301" fill="#84BE84" rx="3" ry="3" style="stroke: #038048; stroke-width: 1.0;"/><text fill="#000000" font-family="sans-serif" font-size="11" lengthAdjust="spacingAndGlyphs" textLength="242" x="2406" y="304.2104">GetDynamicProxiedClassCtor(): napi_value</text><ellipse cx="2397" cy="313.8047" fill="#84BE84" rx="3" ry="3" style="stroke: #038048; stroke-width: 1.0;"/><text fill="#000000" font-family="sans-serif" font-size="11" lengthAdjust="spacingAndGlyphs" textLength="200" x="2406" y="317.0151">GetStaticProxierClass(): EtsClass *</text><ellipse cx="2397" cy="326.6094" fill="#84BE84" rx="3" ry="3" style="stroke: #038048; stroke-width: 1.0;"/><text fill="#000000" font-family="sans-serif" font-size="11" lengthAdjust="spacingAndGlyphs" textLength="279" x="2406" y="329.8198">ConvertToStatic(jsValue: napi_value): EtsObject *</text><!--MD5=[f62216ba4dec21fdb750eef09a04f8ec]
class AllProxiedStaticConverter--><rect fill="#FEFECE" filter="url(#f117htfigbgys6)" height="86.4141" id="AllProxiedStaticConverter" style="stroke: #A80036; stroke-width: 1.5;" width="305" x="1876" y="396"/><ellipse cx="1945.75" cy="412" fill="#ADD1B2" rx="11" ry="11" style="stroke: #A80036; stroke-width: 1.0;"/><path d="M1948.7188,417.6406 Q1948.1406,417.9375 1947.5,418.0781 Q1946.8594,418.2344 1946.1563,418.2344 Q1943.6563,418.2344 1942.3281,416.5938 Q1941.0156,414.9375 1941.0156,411.8125 Q1941.0156,408.6875 1942.3281,407.0313 Q1943.6563,405.375 1946.1563,405.375 Q1946.8594,405.375 1947.5,405.5313 Q1948.1563,405.6875 1948.7188,405.9844 L1948.7188,408.7031 Q1948.0938,408.125 1947.5,407.8594 Q1946.9063,407.5781 1946.2813,407.5781 Q1944.9375,407.5781 1944.25,408.6563 Q1943.5625,409.7188 1943.5625,411.8125 Q1943.5625,413.9063 1944.25,414.9844 Q1944.9375,416.0469 1946.2813,416.0469 Q1946.9063,416.0469 1947.5,415.7813 Q1948.0938,415.5 1948.7188,414.9219 L1948.7188,417.6406 Z "/><text fill="#000000" font-family="sans-serif" font-size="12" lengthAdjust="spacingAndGlyphs" textLength="157" x="1966.25" y="416.1543">AllProxiedStaticConverter</text><line style="stroke: #A80036; stroke-width: 1.5;" x1="1877" x2="2180" y1="428" y2="428"/><line style="stroke: #A80036; stroke-width: 1.5;" x1="1877" x2="2180" y1="436" y2="436"/><ellipse cx="1887" cy="447" fill="#84BE84" rx="3" ry="3" style="stroke: #038048; stroke-width: 1.0;"/><text fill="#000000" font-family="sans-serif" font-size="11" lengthAdjust="spacingAndGlyphs" textLength="242" x="1896" y="450.2104">GetDynamicProxiedClassCtor(): napi_value</text><ellipse cx="1887" cy="459.8047" fill="#84BE84" rx="3" ry="3" style="stroke: #038048; stroke-width: 1.0;"/><text fill="#000000" font-family="sans-serif" font-size="11" lengthAdjust="spacingAndGlyphs" textLength="200" x="1896" y="463.0151">GetStaticProxierClass(): EtsClass *</text><ellipse cx="1887" cy="472.6094" fill="#84BE84" rx="3" ry="3" style="stroke: #038048; stroke-width: 1.0;"/><text fill="#000000" font-family="sans-serif" font-size="11" lengthAdjust="spacingAndGlyphs" textLength="279" x="1896" y="475.8198">ConvertToStatic(jsValue: napi_value): EtsObject *</text><path d="M1810.5,542 L1810.5,567.1328 A0,0 0 0 0 1810.5,567.1328 L2246.5,567.1328 A0,0 0 0 0 2246.5,567.1328 L2246.5,552 L2236.5,542 L2032.5,542 L2028.5,482.26 L2024.5,542 L1810.5,542 A0,0 0 0 0 1810.5,542 " fill="#FBFB77" filter="url(#f117htfigbgys6)" style="stroke: #A80036; stroke-width: 1.0;"/><path d="M2236.5,542 L2236.5,552 L2246.5,552 L2236.5,542 " fill="#FBFB77" style="stroke: #A80036; stroke-width: 1.0;"/><text fill="#000000" font-family="sans-serif" font-size="13" lengthAdjust="spacingAndGlyphs" textLength="415" x="1816.5" y="559.0669">静态代理对象会把所有方法&amp;属性访问代理到动态, 许多Builtin类型都可以使用这个, 比如Array, Map等</text><!--MD5=[bd4e696cb0b029a261dd8f03cfad9029]
class MethodProxiedStaticConverter--><rect fill="#FEFECE" filter="url(#f117htfigbgys6)" height="86.4141" id="MethodProxiedStaticConverter" style="stroke: #A80036; stroke-width: 1.5;" width="305" x="2216" y="396"/><ellipse cx="2269.25" cy="412" fill="#ADD1B2" rx="11" ry="11" style="stroke: #A80036; stroke-width: 1.0;"/><path d="M2272.2188,417.6406 Q2271.6406,417.9375 2271,418.0781 Q2270.3594,418.2344 2269.6563,418.2344 Q2267.1563,418.2344 2265.8281,416.5938 Q2264.5156,414.9375 2264.5156,411.8125 Q2264.5156,408.6875 2265.8281,407.0313 Q2267.1563,405.375 2269.6563,405.375 Q2270.3594,405.375 2271,405.5313 Q2271.6563,405.6875 2272.2188,405.9844 L2272.2188,408.7031 Q2271.5938,408.125 2271,407.8594 Q2270.4063,407.5781 2269.7813,407.5781 Q2268.4375,407.5781 2267.75,408.6563 Q2267.0625,409.7188 2267.0625,411.8125 Q2267.0625,413.9063 2267.75,414.9844 Q2268.4375,416.0469 2269.7813,416.0469 Q2270.4063,416.0469 2271,415.7813 Q2271.5938,415.5 2272.2188,414.9219 L2272.2188,417.6406 Z "/><text fill="#000000" font-family="sans-serif" font-size="12" lengthAdjust="spacingAndGlyphs" textLength="190" x="2289.75" y="416.1543">MethodProxiedStaticConverter</text><line style="stroke: #A80036; stroke-width: 1.5;" x1="2217" x2="2520" y1="428" y2="428"/><line style="stroke: #A80036; stroke-width: 1.5;" x1="2217" x2="2520" y1="436" y2="436"/><ellipse cx="2227" cy="447" fill="#84BE84" rx="3" ry="3" style="stroke: #038048; stroke-width: 1.0;"/><text fill="#000000" font-family="sans-serif" font-size="11" lengthAdjust="spacingAndGlyphs" textLength="242" x="2236" y="450.2104">GetDynamicProxiedClassCtor(): napi_value</text><ellipse cx="2227" cy="459.8047" fill="#84BE84" rx="3" ry="3" style="stroke: #038048; stroke-width: 1.0;"/><text fill="#000000" font-family="sans-serif" font-size="11" lengthAdjust="spacingAndGlyphs" textLength="200" x="2236" y="463.0151">GetStaticProxierClass(): EtsClass *</text><ellipse cx="2227" cy="472.6094" fill="#84BE84" rx="3" ry="3" style="stroke: #038048; stroke-width: 1.0;"/><text fill="#000000" font-family="sans-serif" font-size="11" lengthAdjust="spacingAndGlyphs" textLength="279" x="2236" y="475.8198">ConvertToStatic(jsValue: napi_value): EtsObject *</text><!--MD5=[5072f3f87379274a1a3604eb748096dd]
class FieldProxiedStaticConverter--><rect fill="#FEFECE" filter="url(#f117htfigbgys6)" height="86.4141" id="FieldProxiedStaticConverter" style="stroke: #A80036; stroke-width: 1.5;" width="305" x="2556" y="396"/><ellipse cx="2618.25" cy="412" fill="#ADD1B2" rx="11" ry="11" style="stroke: #A80036; stroke-width: 1.0;"/><path d="M2621.2188,417.6406 Q2620.6406,417.9375 2620,418.0781 Q2619.3594,418.2344 2618.6563,418.2344 Q2616.1563,418.2344 2614.8281,416.5938 Q2613.5156,414.9375 2613.5156,411.8125 Q2613.5156,408.6875 2614.8281,407.0313 Q2616.1563,405.375 2618.6563,405.375 Q2619.3594,405.375 2620,405.5313 Q2620.6563,405.6875 2621.2188,405.9844 L2621.2188,408.7031 Q2620.5938,408.125 2620,407.8594 Q2619.4063,407.5781 2618.7813,407.5781 Q2617.4375,407.5781 2616.75,408.6563 Q2616.0625,409.7188 2616.0625,411.8125 Q2616.0625,413.9063 2616.75,414.9844 Q2617.4375,416.0469 2618.7813,416.0469 Q2619.4063,416.0469 2620,415.7813 Q2620.5938,415.5 2621.2188,414.9219 L2621.2188,417.6406 Z "/><text fill="#000000" font-family="sans-serif" font-size="12" lengthAdjust="spacingAndGlyphs" textLength="172" x="2638.75" y="416.1543">FieldProxiedStaticConverter</text><line style="stroke: #A80036; stroke-width: 1.5;" x1="2557" x2="2860" y1="428" y2="428"/><line style="stroke: #A80036; stroke-width: 1.5;" x1="2557" x2="2860" y1="436" y2="436"/><ellipse cx="2567" cy="447" fill="#84BE84" rx="3" ry="3" style="stroke: #038048; stroke-width: 1.0;"/><text fill="#000000" font-family="sans-serif" font-size="11" lengthAdjust="spacingAndGlyphs" textLength="242" x="2576" y="450.2104">GetDynamicProxiedClassCtor(): napi_value</text><ellipse cx="2567" cy="459.8047" fill="#84BE84" rx="3" ry="3" style="stroke: #038048; stroke-width: 1.0;"/><text fill="#000000" font-family="sans-serif" font-size="11" lengthAdjust="spacingAndGlyphs" textLength="200" x="2576" y="463.0151">GetStaticProxierClass(): EtsClass *</text><ellipse cx="2567" cy="472.6094" fill="#84BE84" rx="3" ry="3" style="stroke: #038048; stroke-width: 1.0;"/><text fill="#000000" font-family="sans-serif" font-size="11" lengthAdjust="spacingAndGlyphs" textLength="279" x="2576" y="475.8198">ConvertToStatic(jsValue: napi_value): EtsObject *</text><!--MD5=[7c3a122196bf0bdae3d5fba2ffd2413e]
class CustomProxiedStaticConverter--><rect fill="#FEFECE" filter="url(#f117htfigbgys6)" height="86.4141" id="CustomProxiedStaticConverter" style="stroke: #A80036; stroke-width: 1.5;" width="305" x="2896" y="396"/><ellipse cx="2949.25" cy="412" fill="#ADD1B2" rx="11" ry="11" style="stroke: #A80036; stroke-width: 1.0;"/><path d="M2952.2188,417.6406 Q2951.6406,417.9375 2951,418.0781 Q2950.3594,418.2344 2949.6563,418.2344 Q2947.1563,418.2344 2945.8281,416.5938 Q2944.5156,414.9375 2944.5156,411.8125 Q2944.5156,408.6875 2945.8281,407.0313 Q2947.1563,405.375 2949.6563,405.375 Q2950.3594,405.375 2951,405.5313 Q2951.6563,405.6875 2952.2188,405.9844 L2952.2188,408.7031 Q2951.5938,408.125 2951,407.8594 Q2950.4063,407.5781 2949.7813,407.5781 Q2948.4375,407.5781 2947.75,408.6563 Q2947.0625,409.7188 2947.0625,411.8125 Q2947.0625,413.9063 2947.75,414.9844 Q2948.4375,416.0469 2949.7813,416.0469 Q2950.4063,416.0469 2951,415.7813 Q2951.5938,415.5 2952.2188,414.9219 L2952.2188,417.6406 Z "/><text fill="#000000" font-family="sans-serif" font-size="12" lengthAdjust="spacingAndGlyphs" textLength="190" x="2969.75" y="416.1543">CustomProxiedStaticConverter</text><line style="stroke: #A80036; stroke-width: 1.5;" x1="2897" x2="3200" y1="428" y2="428"/><line style="stroke: #A80036; stroke-width: 1.5;" x1="2897" x2="3200" y1="436" y2="436"/><ellipse cx="2907" cy="447" fill="#84BE84" rx="3" ry="3" style="stroke: #038048; stroke-width: 1.0;"/><text fill="#000000" font-family="sans-serif" font-size="11" lengthAdjust="spacingAndGlyphs" textLength="242" x="2916" y="450.2104">GetDynamicProxiedClassCtor(): napi_value</text><ellipse cx="2907" cy="459.8047" fill="#84BE84" rx="3" ry="3" style="stroke: #038048; stroke-width: 1.0;"/><text fill="#000000" font-family="sans-serif" font-size="11" lengthAdjust="spacingAndGlyphs" textLength="200" x="2916" y="463.0151">GetStaticProxierClass(): EtsClass *</text><ellipse cx="2907" cy="472.6094" fill="#84BE84" rx="3" ry="3" style="stroke: #038048; stroke-width: 1.0;"/><text fill="#000000" font-family="sans-serif" font-size="11" lengthAdjust="spacingAndGlyphs" textLength="279" x="2916" y="475.8198">ConvertToStatic(jsValue: napi_value): EtsObject *</text><path d="M2815,542 L2815,567.1328 A0,0 0 0 0 2815,567.1328 L3282,567.1328 A0,0 0 0 0 3282,567.1328 L3282,552 L3272,542 L3052.5,542 L3048.5,482.26 L3044.5,542 L2815,542 A0,0 0 0 0 2815,542 " fill="#FBFB77" filter="url(#f117htfigbgys6)" style="stroke: #A80036; stroke-width: 1.0;"/><path d="M3272,542 L3272,552 L3282,552 L3272,542 " fill="#FBFB77" style="stroke: #A80036; stroke-width: 1.0;"/><text fill="#000000" font-family="sans-serif" font-size="13" lengthAdjust="spacingAndGlyphs" textLength="446" x="2821" y="559.0669">可以自定义需要处理的方法和属性, 只代理这些方法和属性, 可以自定义代理逻辑, 如Tuple, Record等可以使用这个</text><!--MD5=[ee30a743cac94e54fc95db9e95a23037]
reverse link StaticConverterBase to UnimplementedStaticConverter--><path d="M1075.11,75.69 C1026.35,92.75 968.92,112.85 922.84,128.98 " fill="none" id="StaticConverterBase&lt;-UnimplementedStaticConverter" style="stroke: #A80036; stroke-width: 1.0; stroke-dasharray: 7.0,7.0;"/><polygon fill="none" points="1072.83,69.07,1094.02,69.07,1077.45,82.28,1072.83,69.07" style="stroke: #A80036; stroke-width: 1.0;"/><!--MD5=[0c11d9ddfcafff106d5b3364185d469c]
reverse link StaticConverterBase to PrimitiveStaticConverter--><path d="M1178.5,89.33 C1178.5,102.73 1178.5,116.81 1178.5,128.74 " fill="none" id="StaticConverterBase&lt;-PrimitiveStaticConverter" style="stroke: #A80036; stroke-width: 1.0;"/><polygon fill="none" points="1171.5,89.22,1178.5,69.22,1185.5,89.22,1171.5,89.22" style="stroke: #A80036; stroke-width: 1.0;"/><!--MD5=[f3447bff0177f75bbfa1fd4c7b6cc1b4]
reverse link PrimitiveStaticConverter to UndefinedStaticConverter--><path d="M1005.51,190.23 C704.13,228.09 621.34,201.21 328.5,250 C308.56,253.32 287.51,257.75 267.26,262.49 " fill="none" id="PrimitiveStaticConverter&lt;-UndefinedStaticConverter" style="stroke: #A80036; stroke-width: 1.0; stroke-dasharray: 7.0,7.0;"/><polygon fill="none" points="1004.95,183.24,1025.68,187.64,1006.73,197.13,1004.95,183.24" style="stroke: #A80036; stroke-width: 1.0;"/><!--MD5=[c2dc4496b424f3d023a0f494b581d5cd]
reverse link PrimitiveStaticConverter to NullStaticConverter--><path d="M1005.8,190.52 C864.52,215.12 685.34,246.45 668.5,250 C650.65,253.77 631.83,258.07 613.48,262.46 " fill="none" id="PrimitiveStaticConverter&lt;-NullStaticConverter" style="stroke: #A80036; stroke-width: 1.0; stroke-dasharray: 7.0,7.0;"/><polygon fill="none" points="1005,183.55,1025.9,187.02,1007.4,197.34,1005,183.55" style="stroke: #A80036; stroke-width: 1.0;"/><!--MD5=[b4c5eac6d6e91f31f2e3a8edcc0e8eaf]
reverse link PrimitiveStaticConverter to BooleanStaticConverter--><path d="M1083.2,197.36 C1030.01,217.93 964.63,243.22 914.84,262.47 " fill="none" id="PrimitiveStaticConverter&lt;-BooleanStaticConverter" style="stroke: #A80036; stroke-width: 1.0; stroke-dasharray: 7.0,7.0;"/><polygon fill="none" points="1081.02,190.7,1102.2,190.01,1086.07,203.75,1081.02,190.7" style="stroke: #A80036; stroke-width: 1.0;"/><!--MD5=[c821786af1856da3a9653f839c6e6a45]
reverse link PrimitiveStaticConverter to NumerStaticConverter--><path d="M1178.5,210.18 C1178.5,227.68 1178.5,246.78 1178.5,262.13 " fill="none" id="PrimitiveStaticConverter&lt;-NumerStaticConverter" style="stroke: #A80036; stroke-width: 1.0; stroke-dasharray: 7.0,7.0;"/><polygon fill="none" points="1171.5,210.01,1178.5,190.01,1185.5,210.01,1171.5,210.01" style="stroke: #A80036; stroke-width: 1.0;"/><!--MD5=[b9185d6cf086372076b94cfaa7f659bd]
reverse link PrimitiveStaticConverter to BigintStaticConverter--><path d="M1273.8,197.36 C1326.99,217.93 1392.37,243.22 1442.16,262.47 " fill="none" id="PrimitiveStaticConverter&lt;-BigintStaticConverter" style="stroke: #A80036; stroke-width: 1.0; stroke-dasharray: 7.0,7.0;"/><polygon fill="none" points="1270.93,203.75,1254.8,190.01,1275.98,190.7,1270.93,203.75" style="stroke: #A80036; stroke-width: 1.0;"/><!--MD5=[6ff49e2a0c1bc86eac582d29ef5e81ec]
reverse link PrimitiveStaticConverter to StringStaticConverter--><path d="M1350.81,187.72 C1449.91,204.13 1576.57,226.38 1688.5,250 C1706.35,253.77 1725.17,258.07 1743.52,262.46 " fill="none" id="PrimitiveStaticConverter&lt;-StringStaticConverter" style="stroke: #A80036; stroke-width: 1.0; stroke-dasharray: 7.0,7.0;"/><polygon fill="none" points="1349.65,194.62,1331.05,184.47,1351.92,180.81,1349.65,194.62" style="stroke: #A80036; stroke-width: 1.0;"/><!--MD5=[0ed0964939662ca2a66dc58bcc535710]
reverse link StaticConverterBase to ReferenceStaticConverter--><path d="M1351.12,59.64 C1545.8,82.35 1859.41,118.94 2045.59,140.66 " fill="none" id="StaticConverterBase&lt;-ReferenceStaticConverter" style="stroke: #A80036; stroke-width: 1.0;"/><polygon fill="none" points="1350.26,66.59,1331.2,57.32,1351.88,52.68,1350.26,66.59" style="stroke: #A80036; stroke-width: 1.0;"/><!--MD5=[0bebdea8f63679de5a37a3b18b37b07e]
reverse link ReferenceStaticConverter to ToJSValueStaticConverter--><path d="M2198.5,210.14 C2198.5,223.23 2198.5,237.22 2198.5,249.87 " fill="none" id="ReferenceStaticConverter&lt;-ToJSValueStaticConverter" style="stroke: #A80036; stroke-width: 1.0; stroke-dasharray: 7.0,7.0;"/><polygon fill="none" points="2191.5,210.01,2198.5,190.01,2205.5,210.01,2191.5,210.01" style="stroke: #A80036; stroke-width: 1.0;"/><!--MD5=[a99fd16e940676a960568409dec76b96]
reverse link ReferenceStaticConverter to ProxiedStaticConverter--><path d="M2293.66,197.31 C2336.01,213.68 2386.09,233.05 2429.89,249.99 " fill="none" id="ReferenceStaticConverter&lt;-ProxiedStaticConverter" style="stroke: #A80036; stroke-width: 1.0;"/><polygon fill="none" points="2290.93,203.75,2274.8,190.01,2295.98,190.7,2290.93,203.75" style="stroke: #A80036; stroke-width: 1.0;"/><!--MD5=[7dd45a2242c325df0ab855aca6b6d609]
reverse link ProxiedStaticConverter to AllProxiedStaticConverter--><path d="M2370.15,341.53 C2307.95,359.1 2237.94,378.86 2177.57,395.91 " fill="none" id="ProxiedStaticConverter&lt;-AllProxiedStaticConverter" style="stroke: #A80036; stroke-width: 1.0; stroke-dasharray: 7.0,7.0;"/><polygon fill="none" points="2368.47,334.74,2389.62,336.04,2372.27,348.21,2368.47,334.74" style="stroke: #A80036; stroke-width: 1.0;"/><!--MD5=[89f282d2e7a1ba9d15e56d4e482bfcbe]
reverse link ProxiedStaticConverter to MethodProxiedStaticConverter--><path d="M2473.51,349.05 C2455.16,364.59 2435.49,381.26 2418.19,395.91 " fill="none" id="ProxiedStaticConverter&lt;-MethodProxiedStaticConverter" style="stroke: #A80036; stroke-width: 1.0; stroke-dasharray: 7.0,7.0;"/><polygon fill="none" points="2469.09,343.62,2488.87,336.04,2478.14,354.31,2469.09,343.62" style="stroke: #A80036; stroke-width: 1.0;"/><!--MD5=[e76f4de9590f42e01a4282d9353d2b31]
reverse link ProxiedStaticConverter to FieldProxiedStaticConverter--><path d="M2603.49,349.05 C2621.84,364.59 2641.51,381.26 2658.81,395.91 " fill="none" id="ProxiedStaticConverter&lt;-FieldProxiedStaticConverter" style="stroke: #A80036; stroke-width: 1.0; stroke-dasharray: 7.0,7.0;"/><polygon fill="none" points="2598.86,354.31,2588.13,336.04,2607.91,343.62,2598.86,354.31" style="stroke: #A80036; stroke-width: 1.0;"/><!--MD5=[ce9c1569d992493dae39d7ead1026c3e]
reverse link ProxiedStaticConverter to CustomProxiedStaticConverter--><path d="M2706.85,341.53 C2769.05,359.1 2839.06,378.86 2899.43,395.91 " fill="none" id="ProxiedStaticConverter&lt;-CustomProxiedStaticConverter" style="stroke: #A80036; stroke-width: 1.0; stroke-dasharray: 7.0,7.0;"/><polygon fill="none" points="2704.73,348.21,2687.38,336.04,2708.53,334.74,2704.73,348.21" style="stroke: #A80036; stroke-width: 1.0;"/><!--MD5=[20279519fe3264d326bfd81dce98af30]
@startuml static_converter

interface StaticConverterBase {
    + ConvertToStatic(jsValue: napi_value): EtsObject *
}

class UnimplementedStaticConverter implements StaticConverterBase {
    + ConvertToStatic(jsValue: napi_value): EtsObject *
}

interface PrimitiveStaticConverter extends StaticConverterBase {
    + ConvertToStatic(jsValue: napi_value): EtsObject *
}

class UndefinedStaticConverter implements PrimitiveStaticConverter {
    + ConvertToStatic(jsValue: napi_value): EtsObject *
}

class NullStaticConverter implements PrimitiveStaticConverter {
    + ConvertToStatic(jsValue: napi_value): EtsObject *
}

class BooleanStaticConverter implements PrimitiveStaticConverter {
    + ConvertToStatic(jsValue: napi_value): EtsObject *
}

class NumerStaticConverter implements PrimitiveStaticConverter {
    + ConvertToStatic(jsValue: napi_value): EtsObject *
}

class BigintStaticConverter implements PrimitiveStaticConverter {
    + ConvertToStatic(jsValue: napi_value): EtsObject *
}

class StringStaticConverter implements PrimitiveStaticConverter {
    + ConvertToStatic(jsValue: napi_value): EtsObject *
}


interface ReferenceStaticConverter extends StaticConverterBase {
    + ConvertToStatic(jsValue: napi_value): EtsObject *
}

note top of ReferenceStaticConverter
  查找sharedReference的逻辑在这之前, 没查到才会进Converter
end note

class ToJSValueStaticConverter implements ReferenceStaticConverter {
    + GetDynamicProxiedClassCtor(): napi_value
    + GetStaticProxierClass(): EtsClass *
    + ConvertToStatic(jsValue: napi_value): EtsObject *
}

interface ProxiedStaticConverter extends ReferenceStaticConverter {
    + GetDynamicProxiedClassCtor(): napi_value
    + GetStaticProxierClass(): EtsClass *
    + ConvertToStatic(jsValue: napi_value): EtsObject *
}

class AllProxiedStaticConverter implements ProxiedStaticConverter {
    + GetDynamicProxiedClassCtor(): napi_value
    + GetStaticProxierClass(): EtsClass *
    + ConvertToStatic(jsValue: napi_value): EtsObject *
}

note bottom of AllProxiedStaticConverter
  静态代理对象会把所有方法&属性访问代理到动态, 许多Builtin类型都可以使用这个, 比如Array, Map等
end note


class MethodProxiedStaticConverter implements ProxiedStaticConverter {
    + GetDynamicProxiedClassCtor(): napi_value
    + GetStaticProxierClass(): EtsClass *
    + ConvertToStatic(jsValue: napi_value): EtsObject *
}

class FieldProxiedStaticConverter implements ProxiedStaticConverter {
    + GetDynamicProxiedClassCtor(): napi_value
    + GetStaticProxierClass(): EtsClass *
    + ConvertToStatic(jsValue: napi_value): EtsObject *
}

class CustomProxiedStaticConverter implements ProxiedStaticConverter {
    + GetDynamicProxiedClassCtor(): napi_value
    + GetStaticProxierClass(): EtsClass *
    + ConvertToStatic(jsValue: napi_value): EtsObject *
}

note bottom of CustomProxiedStaticConverter
  可以自定义需要处理的方法和属性, 只代理这些方法和属性, 可以自定义代理逻辑, 如Tuple, Record等可以使用这个
end note

@enduml

PlantUML version 1.2020.02(Sun Mar 01 10:22:07 UTC 2020)
(GPL source distribution)
Java Runtime: OpenJDK Runtime Environment
JVM: OpenJDK 64-Bit Server VM
Java Version: 17.0.16+8
Operating System: Linux
Default Encoding: UTF-8
Language: en
Country: null
--></g></svg>